<?xml version="1.0" encoding="UTF-8" standalone="no"?>
<!-- Generator: Adobe Illustrator 16.0.0, SVG Export Plug-In . SVG Version: 6.00 Build 0)  -->

<svg
   xmlns:dc="http://purl.org/dc/elements/1.1/"
   xmlns:cc="http://creativecommons.org/ns#"
   xmlns:rdf="http://www.w3.org/1999/02/22-rdf-syntax-ns#"
   xmlns:svg="http://www.w3.org/2000/svg"
   xmlns="http://www.w3.org/2000/svg"
   xmlns:sodipodi="http://sodipodi.sourceforge.net/DTD/sodipodi-0.dtd"
   xmlns:inkscape="http://www.inkscape.org/namespaces/inkscape"
   version="1.1"
   id="the_book_1_"
   x="0px"
   y="0px"
   width="1164px"
   height="661.364px"
   viewBox="0 0 1164 661.364"
   enable-background="new 0 0 1164 661.364"
   xml:space="preserve"
   sodipodi:docname="old timey GPS.svg"
   inkscape:version="0.92.0 r15299"><title
     id="title364">old timey GPS</title><metadata
     id="metadata362"><rdf:RDF><cc:Work
         rdf:about=""><dc:format>image/svg+xml</dc:format><dc:type
           rdf:resource="http://purl.org/dc/dcmitype/StillImage" /><dc:title>old timey GPS</dc:title><dc:date>7/25/2017</dc:date><dc:creator><cc:Agent><dc:title>cactus cowboy</dc:title></cc:Agent></dc:creator></cc:Work></rdf:RDF></metadata><defs
     id="defs360" /><sodipodi:namedview
     pagecolor="#ffffff"
     bordercolor="#666666"
     borderopacity="1"
     objecttolerance="10"
     gridtolerance="10"
     guidetolerance="10"
     inkscape:pageopacity="0"
     inkscape:pageshadow="2"
     inkscape:window-width="1920"
     inkscape:window-height="1052"
     id="namedview358"
     showgrid="false"
     inkscape:zoom="1.2837106"
     inkscape:cx="582"
     inkscape:cy="330.68201"
     inkscape:window-x="-9"
     inkscape:window-y="-9"
     inkscape:window-maximized="1"
     inkscape:current-layer="the_book_1_" /><g
     id="book_parts"><path
       id="book_outline"
       fill="#FFFFFF"
       stroke="#000000"
       stroke-width="5.625"
       stroke-linecap="round"
       stroke-linejoin="round"
       d="   M63.003,274.948c0,0-18.75,5.208-7.917,25.208c0,0-10.832,15.834,0.834,20c0,0-12.501,10-0.834,15c0,0-10.833,11.667,0,19.167   c0,0-8.332-4.167-1.666,16.667l-33.334,13.333c0,0-19.167,10.834,0,25l421.667,240c0,0,25,14.165,45-1.667l290-133.333   c0,0,19.167,10,39.167,6.667c20-3.334,38.125-11.875,60.625-29.375c10.833-9.167,3.541-23.125,3.541-23.125l258.334-121.667   c0,0,31.667-11.666,5.834-20.833l-27.501-10c0,0,11.667-12.5-1.667-18.334c0,0,10.833-5.833-0.833-12.5c0,0,14.166-10.833,2.5-17.5   c0,0,11.667-18.333-1.667-23.333c0,0,8.75-9.792-3.75-11.458" /><g
       id="fake_pages"><path
         fill="none"
         stroke="#000000"
         stroke-width="5.625"
         stroke-linecap="round"
         stroke-linejoin="round"
         d="M53.42,370.99    c0,0-13.129,12.912,1.768,19.789l-1.636,7.5l407.344,229.688c0,0,235.178-142.999,329.531-152.344c0,0,36.844,6.873,19.917,30.703    c0,0,44.801-6.174,48.521-23.672l-54.375-32.344"
         id="path188" /><path
         d="M817.358,405.397c0.377,5.234-1.047,10.53-4.685,14.417c-0.091,0.102,0.697-0.784,0.358-0.402    c-0.287,1.732,0.287-1.683-0.195-2.423c7.252,11.087-0.287,12.722-3.997,17.745c0.007,0.271-0.014-0.354-0.01-0.276    c3.676,6.715,2.788,14.434-5.229,17.451c0.024-0.017-0.106,0.06,0.045-0.032c-4.041,1.088-4.535,3.252-3.576,6.978    c1.564,7.413,1.053,13.476-7.827,15.706c-1.909-0.224-1.716-0.137-2.334-2.104c0.126,0.725,4.211,2.76,3.358,3.896    c-2.444,3.312-9.075,2.402-7.762-1.61c0.893-2.385,3.674-7.74,5.578-9.4c3.386-3.394-2.464-7.854-0.788-12.006    c1.479-4.158,6.813-5.496,8.658-8.995c4.111-7.798-0.952-14.8,8.936-21.843c-0.313,0.276-0.802,2.854-0.288,2.727    c-5.465-4.101-2.856-6.754-2.156-11.777c0.271-1.942,1.911-3.732,1.625-6.283C806.278,399.628,816.207,397.732,817.358,405.397z"
         id="path190" /><path
         d="M462.379,535.534c-1.88,3.393-1.828,7.292,0.064,10.605c3.995,6.615-0.674,6.728,0.493,13.194    c-0.623,4.471,3.515,4.218,4.266,7.958c0.92,4.583-5.813,7.36-4.929,12.229c0.524,3.55,1.641,4.305,1.237,7.834    c-2.575,2.564-4.17,5.755-2.318,9.078c0.451,4.631,4.805,4.842,1.101,10.046c-2.919,4.058-5.452,9.797-3.731,14.868    c0.305,1.212,4.387,6.099,3.328,6.983c-2.583,2.158-7.361-8.011-7.684-9.522c-1.627-6.486,0.802-13.754,4.232-19.256l0.541,5.104    c-7.168-6.202-6.418-15.911,1.019-21.693c-0.078,1.395-0.155,2.789-0.232,4.184c-6.522-5.998-4.091-15.455,0.615-21.731    c0.335,1.993,1.056,4.156,1.036,6.169c-7.923-5.515-6.789-14.941-2.096-22.36c0.099,1.313,0.196,2.628,0.294,3.941    C455.516,547.364,458.978,530.548,462.379,535.534z"
         id="path192" /><polyline
         fill="none"
         stroke="#000000"
         stroke-width="5.625"
         stroke-linecap="round"
         stroke-linejoin="round"
         stroke-miterlimit="10"
         points="    520.505,568.492 460.922,604.326 420.922,583.492   "
         id="polyline194" /><line
         fill="none"
         stroke="#000000"
         stroke-width="5.625"
         stroke-linecap="round"
         stroke-linejoin="round"
         stroke-miterlimit="10"
         x1="806.339"
         y1="433.076"
         x2="850.089"
         y2="459.326"
         id="line196" /><path
         fill="none"
         stroke="#000000"
         stroke-width="5.625"
         stroke-linecap="round"
         stroke-linejoin="round"
         stroke-miterlimit="10"
         d="    M813.005,410.158c0,0,15-3.332,13.75,10.834c0,0,13.749,0.001,12.916,9.584c0,0,10.416-1.252,11.25,9.582    c0,0,9.168-1.665,11.668,6.668c0,0,74.998-59.169,255.416-110.418c0,0-4.582-7.5,2.918-9.166c0,0,7.083-6.25-4.167-10.416"
         id="path198" /><path
         fill="none"
         stroke="#000000"
         stroke-width="5.625"
         stroke-linecap="round"
         stroke-linejoin="round"
         stroke-miterlimit="10"
         d="    M1115.923,285.992c0,0-49.999,1.251-86.667,18.334"
         id="path200" /><path
         fill="none"
         stroke="#000000"
         stroke-width="5.625"
         stroke-linecap="round"
         stroke-linejoin="round"
         stroke-miterlimit="10"
         d="    M1118.006,268.076c0,0-21.667-5.001-59.583,6.666"
         id="path202" /><path
         fill="none"
         stroke="#000000"
         stroke-width="5.625"
         stroke-linecap="round"
         stroke-linejoin="round"
         stroke-miterlimit="10"
         d="    M1116.339,244.742c0,0-28.333-2.5-66.666,6.667"
         id="path204" /><path
         fill="none"
         stroke="#000000"
         stroke-width="5"
         stroke-linecap="round"
         stroke-linejoin="round"
         d="M73.63,280.367    c0,0-8.75,2.5-10.625,7.5l355.834,208.959l42.916,25.416c114.166-73.334,192.916-85,192.916-85    c-66.667,15.834-193.332,97.5-193.332,97.5l-185-106.25"
         id="path206" /></g><path
       id="second_page"
       fill="#FFFFFF"
       stroke="#000000"
       stroke-width="5.625"
       stroke-linecap="round"
       stroke-linejoin="round"
       d="   M740.5,8.279c0,0-57.495,37.713-149.995,73.963S464.87,176.817,456.438,199.529c0,0-57.183-18.537-117.656-18.281   c-62.207,0.264-107.026,4.744-169.526,28.494s-110,61.25-110,61.25l402.5,240c0,0,165-127.5,350-103.75c0,0,62.964-110.994,300-175   L740.5,8.279z" /><g
       id="top_page"><path
         id="border"
         fill="#FFFFFF"
         stroke="#000000"
         stroke-width="5.625"
         stroke-linecap="round"
         stroke-linejoin="round"
         d="    M740.505,8.279c0,0-57.5,37.713-150,73.963s-125.637,94.575-134.063,117.287c0,0-57.188-18.537-117.662-18.274    c-62.2,0.263-107.025,4.737-169.525,28.487S60.817,245.466,60.817,245.466l397.263,228.05c0,0,216.175-127.524,353.675-68.774    c0,0,48.426-125.737,285.463-189.737L740.505,8.279z" /><path
         id="dk_grn"
         fill="#7A953B"
         d="M786.343,387.242c-51.263-11.787-99.788-15.125-151.863-6.05    c-42.274,7.374-83.237,20.663-122.487,37.875c-18.663,8.287-37.063,17.45-54.537,28.05c-3.038,1.85-3.987,0.225-7.05-1.476    c-12.438-6.925-24.889-13.837-37.325-20.762c-89.913-50.013-179.813-100.038-269.726-150.051    c-10.787-5.999-31.607-13.829-31.188-17.999c0.421-4.171,63.888-23.726,96.413-35.588c42.662-15.551,87.987-19.888,133.013-22.612    C507.093,193.392,659.205,292.253,786.343,387.242z" /><path
         id="lt_grn"
         fill="#CADB86"
         d="M843.405,325.355l-0.551,0.524C843.043,325.691,843.229,325.517,843.405,325.355z     M835.829,332.554c-27.249,26.088-39.938,45.324-42.824,51.775c-39.15-42.362-189.862-124.825-239.351-147.351    c-42.949-19.563-69.212-26.55-78.837-28.7c0.875-3.787,4.5-16.975,15.537-33.425c12.101-18.024,35.825-43.787,80.175-64.163    c75.751-34.799,155.976-72.087,169.763-78.499l159.051,91.825l4.924,2.837l34.089,19.676l4.874,2.824l34.225,19.751l5.625,3.249    l64.426,37.188c-113.713,44.612-176.263,89.788-209.138,120.612l0.375-0.375c-0.2,0.188-0.4,0.388-0.612,0.588    c-0.512,0.487-1.112,1.063-1.2,1.15C835.88,332.504,835.343,333.017,835.829,332.554z" /><path
         id="outline"
         d="M1054.655,203.567c12.787,7.375,3.188,11.274-8.201,15.8c-43.337,17.188-85.861,36.926-125.85,61    c-40.625,24.45-82.449,54.237-109.362,94.137c-3.9,5.775-7.75,11.938-10.137,18.514c-2.8,7.725-39.438-4.55-47.063-5.688    c-25.188-3.75-50.787-4.501-76.188-2.7c-48.862,3.462-96.899,16.012-142.325,34.125c-20.237,8.075-40.05,17.275-59.187,27.7    c-4.025,2.188-17.813,13.725-23.101,10.787c-25.087-13.963-50.175-27.912-75.263-41.875    c-87.612-48.738-183.337-102.475-270.938-151.213c-3.587-1.987-11.324-5.875-11.75-9.625c-0.412-3.75,26.377-12.829,44.38-18.953    c20.833-7.088,82.921-37.496,167.708-43.609c38.976-3.063,77.475-3.162,116.362,2.4c4.263,0.612,43.2,9.2,43.7,7.513    c3.063-10.313,7.938-20.101,13.713-29.15c27-42.388,71.263-63.3,115.35-83.624c44.301-20.413,88.563-40.9,132.788-61.451    c13.574-6.3,17.274-1.938,29.874,5.338c22.013,12.699,44.025,25.413,66.05,38.125c32.237,18.613,64.488,37.237,96.738,55.85    c33.163,19.138,66.324,38.275,99.476,57.413C1032.505,190.779,1043.58,197.167,1054.655,203.567z M1047.505,209.542    l-64.426-37.188l-5.625-3.249l-34.225-19.751l-4.874-2.824l-34.089-19.676l-4.924-2.837L740.292,32.192    c-13.787,6.412-94.012,43.7-169.763,78.499c-44.35,20.376-68.074,46.139-80.175,64.163c-11.037,16.45-14.662,29.638-15.537,33.425    c9.625,2.15,35.888,9.138,78.837,28.7c49.488,22.525,200.2,104.988,239.351,147.351c2.887-6.451,15.575-25.688,42.824-51.775    c-0.486,0.463,0.051-0.05,1.101-1.037c0.4-0.388,0.801-0.763,1.2-1.15c0.088-0.063,0.163-0.138,0.237-0.213    C871.242,299.33,933.792,254.154,1047.505,209.542z M634.479,381.192c52.075-9.075,100.601-5.737,151.863,6.05    c-127.138-94.988-279.25-193.85-444.75-188.612c-45.025,2.725-90.351,7.062-133.013,22.612    c-32.525,11.862-95.583,31.008-96.413,35.588c-0.829,4.579,20.4,12,31.188,17.999c89.913,50.013,179.813,100.038,269.726,150.051    c12.437,6.925,24.888,13.837,37.325,20.762c3.063,1.7,4.012,3.325,7.05,1.476c17.475-10.6,35.874-19.763,54.537-28.05    C551.242,401.855,592.205,388.566,634.479,381.192z" /></g><g
       id="grid_lines"><line
         fill="none"
         stroke="#000000"
         stroke-linecap="round"
         stroke-linejoin="round"
         x1="691.318"
         y1="53.409"
         x2="1003.818"
         y2="235.227"
         id="line215" /><line
         fill="none"
         stroke="#000000"
         stroke-linecap="round"
         stroke-linejoin="round"
         x1="611.772"
         y1="87.5"
         x2="938.682"
         y2="265.727"
         id="line217" /><path
         fill="none"
         stroke="#000000"
         stroke-linecap="round"
         stroke-linejoin="round"
         d="M545.863,119.318    c0,0,101.137,43.183,326.137,188.637"
         id="path219" /><path
         fill="none"
         stroke="#000000"
         stroke-linecap="round"
         stroke-linejoin="round"
         d="M493.591,164.772    c0,0,144.318,65.91,325,189.773"
         id="path221" /><path
         fill="none"
         stroke="#000000"
         stroke-linecap="round"
         stroke-linejoin="round"
         d="M799.272,62.5    c0,0-217.046,59.09-260.227,172.727c0,0-242.045-50-380.682,54.545"
         id="path223" /><path
         fill="none"
         stroke="#000000"
         stroke-linecap="round"
         stroke-linejoin="round"
         d="M861.773,100    c0,0-217.045,56.819-247.728,173.864c0,0-172.728-72.727-353.41,71.591"
         id="path225" /><path
         fill="none"
         stroke="#000000"
         stroke-linecap="round"
         stroke-linejoin="round"
         d="M920.864,136.363    c0,0-208.091,54.091-236.5,175.682c0,0-197.592-76.818-340.773,80"
         id="path227" /><path
         fill="none"
         stroke="#000000"
         stroke-linecap="round"
         stroke-linejoin="round"
         d="M989.045,175    c0,0-222.728,77.273-237.5,182.955c0,0-238.636-60.228-335.227,75"
         id="path229" /><path
         fill="none"
         stroke="#000000"
         stroke-linecap="round"
         stroke-linejoin="round"
         d="M194.728,222.727    c0,0,213.636,78.409,345.454,190.909"
         id="path231" /><path
         fill="none"
         stroke="#000000"
         stroke-linecap="round"
         stroke-linejoin="round"
         d="M314.045,197.727    c0,0,202.273,71.592,321.591,188.637"
         id="path233" /><path
         fill="none"
         stroke="#000000"
         stroke-linecap="round"
         stroke-linejoin="round"
         d="M420.864,202.272    c0,0,238.636,77.273,315.909,180.682"
         id="path235" /></g><g
       id="trails"><g
         id="r_bottom_path"><g
           id="g256"><path
             d="M884.601,207.722c0,0-0.441-0.158-1.104-0.394c-0.668-0.253-1.537-0.513-2.408-0.789      c-1.738-0.548-3.478-1.096-3.478-1.096l-0.094-0.03c-1.429-0.451-2.222-1.974-1.771-3.403c0.451-1.429,1.975-2.223,3.403-1.772      c0.087,0.027,0.175,0.061,0.257,0.096c0,0,1.772,0.763,3.546,1.526c0.883,0.382,1.777,0.755,2.398,1.066      c0.636,0.302,1.06,0.503,1.06,0.503c1.163,0.553,1.658,1.943,1.105,3.106c-0.517,1.088-1.768,1.592-2.879,1.2L884.601,207.722z"
             id="path238" /><path
             d="M859.75,200.98c0,0-0.866-0.162-2.164-0.404c-0.649-0.121-1.406-0.262-2.218-0.414      c-0.809-0.146-1.683-0.324-2.537-0.463c-3.382-0.527-6.765-1.054-6.765-1.054l-0.137-0.021c-2.136-0.333-3.597-2.334-3.264-4.47      c0.332-2.136,2.333-3.597,4.469-3.264c0.071,0.011,0.153,0.027,0.223,0.042c0,0,3.538,0.763,7.076,1.526      c0.87,0.207,1.709,0.44,2.512,0.645c0.799,0.208,1.544,0.402,2.183,0.569c1.278,0.333,2.13,0.555,2.13,0.555      c1.851,0.482,2.959,2.374,2.477,4.224C863.274,200.217,861.518,201.306,859.75,200.98z"
             id="path240" /><path
             d="M827.868,196.989c0,0-3.517-0.09-7.033-0.18c-3.382,0.052-6.763,0.105-6.763,0.105l-0.189,0.003      c-2.59,0.04-4.722-2.027-4.762-4.617s2.027-4.722,4.617-4.762c0.061-0.001,0.14,0,0.2,0.001c0,0,3.657,0.1,7.314,0.199      c3.514,0.237,7.028,0.475,7.028,0.475c2.42,0.164,4.25,2.259,4.087,4.68C832.209,195.25,830.206,197.045,827.868,196.989z"
             id="path242" /><path
             d="M796.061,198.48c0,0-3.468,0.595-6.936,1.189c-3.256,0.745-6.521,1.417-6.521,1.417l-0.25,0.051      c-2.767,0.57-5.472-1.21-6.042-3.977c-0.57-2.767,1.204-5.471,3.971-6.041c0,0,3.629-0.753,7.267-1.434      c3.485-0.5,6.972-1.001,6.972-1.001c2.711-0.389,5.224,1.493,5.612,4.203C800.517,195.552,798.695,198.026,796.061,198.48z"
             id="path244" /><path
             d="M765.503,206.423c0,0-3.241,1.366-6.481,2.732c-2.987,1.425-5.974,2.851-5.974,2.851l-0.258,0.123      c-2.623,1.251-5.765,0.14-7.016-2.483c-1.252-2.623-0.145-5.762,2.479-7.014c0,0,3.363-1.609,6.728-3.218      c3.261-1.328,6.521-2.657,6.521-2.657c2.676-1.09,5.729,0.196,6.817,2.871c1.082,2.654-0.176,5.68-2.809,6.792L765.503,206.423z      "
             id="path246" /><path
             d="M737.731,221.23c0,0-2.827,2.093-5.653,4.186c-2.578,2.098-5.155,4.195-5.155,4.195l-0.207,0.169      c-2.203,1.793-5.443,1.46-7.236-0.743c-1.774-2.18-1.465-5.378,0.677-7.183c0,0,2.843-2.394,5.687-4.787      c1.405-1.062,2.812-2.123,3.866-2.919c1.057-0.791,1.762-1.317,1.762-1.317l0.007-0.005c2.317-1.732,5.6-1.259,7.332,1.058      s1.259,5.6-1.058,7.332L737.731,221.23z"
             id="path248" /><path
             d="M714.006,242.171c0,0-2.321,2.643-4.642,5.286c-2.114,2.622-4.229,5.244-4.229,5.244l-0.129,0.161      c-1.641,2.035-4.621,2.354-6.655,0.713c-1.994-1.607-2.336-4.506-0.807-6.536c0,0,2.213-2.931,4.426-5.861      c2.236-2.721,4.473-5.443,4.473-5.443c1.741-2.119,4.87-2.425,6.989-0.684s2.425,4.871,0.684,6.99      c-0.029,0.036-0.06,0.072-0.091,0.107L714.006,242.171z"
             id="path250" /><path
             d="M694.677,267.643c0,0-1.827,3.008-3.654,6.016c-1.701,2.968-3.402,5.936-3.402,5.936l-0.067,0.118      c-1.086,1.895-3.502,2.551-5.397,1.465c-1.821-1.043-2.492-3.327-1.578-5.185c0,0,1.606-3.247,3.213-6.493      c1.682-3.095,3.364-6.19,3.364-6.19c1.145-2.107,3.781-2.886,5.889-1.741c2.106,1.145,2.886,3.782,1.741,5.889      c-0.031,0.057-0.063,0.112-0.097,0.167L694.677,267.643z"
             id="path252" /><path
             d="M679.266,296.084l-3.108,6.835c-0.675,1.482-2.423,2.138-3.905,1.463c-1.395-0.634-2.053-2.233-1.563-3.654l2.47-7.092      c0.598-1.717,2.476-2.625,4.193-2.027c1.717,0.598,2.625,2.475,2.026,4.193C679.346,295.897,679.306,295.995,679.266,296.084z"
             id="path254" /></g></g><g
         id="l_bottom_path"><g
           id="g269"><path
             d="M670.85,302.084c0,0-0.473-0.048-1.183-0.121c-0.707-0.083-1.649-0.194-2.592-0.304      c-1.886-0.217-3.757-0.488-3.757-0.488c-0.748-0.108-1.267-0.803-1.158-1.551s0.803-1.267,1.551-1.158      c0.109,0.016,0.214,0.044,0.313,0.083l0.031,0.013c0,0,1.747,0.709,3.479,1.474c0.866,0.379,1.733,0.759,2.383,1.044      c0.647,0.295,1.079,0.492,1.079,0.492c0.136,0.062,0.196,0.223,0.134,0.36c-0.05,0.108-0.161,0.169-0.274,0.157L670.85,302.084z      "
             id="path259" /><path
             d="M643.016,299.662c0,0-0.97-0.029-2.423-0.073c-0.727-0.027-1.574-0.058-2.481-0.091      c-0.454-0.017-0.923-0.034-1.399-0.051c-0.474-0.012-0.969-0.047-1.438-0.041c-3.756-0.033-7.513-0.066-7.513-0.066l-0.16-0.001      c-2.659-0.023-4.796-2.198-4.772-4.857c0.023-2.659,2.198-4.795,4.856-4.772c0.223,0.002,0.469,0.023,0.684,0.055      c0,0,3.944,0.601,7.889,1.202c0.494,0.076,0.955,0.187,1.427,0.277c0.468,0.094,0.928,0.188,1.372,0.278      c0.891,0.18,1.722,0.348,2.435,0.492c1.423,0.297,2.372,0.495,2.372,0.495c1.955,0.408,3.209,2.323,2.802,4.278      C646.301,298.53,644.736,299.716,643.016,299.662z"
             id="path261" /><path
             d="M607.815,300.161c0,0-3.846,0.367-7.692,0.734c-1.821,0.26-3.64,0.498-5.005,0.664      c-1.363,0.171-2.272,0.285-2.272,0.285l-0.262,0.033c-3.496,0.438-6.686-2.04-7.124-5.535c-0.439-3.496,2.039-6.686,5.535-7.124      c0.09-0.011,0.203-0.022,0.292-0.03c0,0,1.014-0.08,2.533-0.2c1.519-0.124,3.544-0.275,5.566-0.403      c1.935-0.05,3.869-0.1,5.319-0.138c1.45-0.026,2.417-0.044,2.417-0.044l0.024,0c3.254-0.06,5.94,2.529,6,5.783      C613.204,297.281,610.843,299.864,607.815,300.161z"
             id="path263" /><path
             d="M573.573,305.583c0,0-0.933,0.252-2.331,0.629c-1.4,0.369-3.268,0.86-5.134,1.352c-1.721,0.553-3.45,1.081-4.752,1.468      c-1.302,0.391-2.17,0.652-2.17,0.652l-0.34,0.102c-3.311,0.994-6.801-0.884-7.795-4.194c-0.957-3.188,0.766-6.547,3.848-7.68      c0,0,0.965-0.352,2.411-0.88c1.446-0.531,3.381-1.229,5.326-1.902c3.705-1.128,7.422-2.169,7.422-2.169l0.04-0.011      c3.484-0.976,7.1,1.058,8.075,4.542c0.977,3.484-1.058,7.099-4.541,8.075L573.573,305.583z"
             id="path265" /><path
             d="M540.82,316.686c0,0-1.693,0.817-3.407,1.6c-0.859,0.388-1.717,0.775-2.361,1.066c-0.65,0.281-1.083,0.469-1.083,0.469      c-2.257,0.976-4.878-0.062-5.854-2.318c-0.836-1.933-0.191-4.133,1.427-5.339c0,0,0.378-0.282,0.946-0.705      c0.573-0.413,1.338-0.964,2.103-1.515c1.533-1.095,3.086-2.155,3.086-2.155c2.351-1.604,5.557-0.998,7.16,1.353      c1.604,2.351,0.999,5.557-1.352,7.16C541.278,316.443,541.038,316.579,540.82,316.686z"
             id="path267" /></g></g><g
         id="r_top_path_1_"><g
           id="g282"><path
             d="M624.605,138.5c0,0-0.456,0.12-1.141,0.301c-0.7,0.159-1.566,0.43-2.441,0.688c-1.749,0.515-3.488,0.988-3.488,0.988      l-0.115,0.032c-1.748,0.475-3.549-0.556-4.024-2.303c-0.475-1.747,0.557-3.548,2.304-4.023c0.163-0.044,0.346-0.078,0.51-0.096      c0,0,1.945-0.209,3.882-0.376c0.969-0.081,1.94-0.174,2.636-0.189c0.707-0.021,1.178-0.036,1.178-0.036      c1.406-0.043,2.58,1.062,2.624,2.468c0.037,1.208-0.773,2.245-1.894,2.541L624.605,138.5z"
             id="path272" /><path
             d="M598.659,147.136c0,0-0.889,0.383-2.222,0.957c-0.667,0.288-1.444,0.623-2.277,0.981      c-0.417,0.178-0.849,0.362-1.286,0.549c-0.432,0.188-0.901,0.365-1.314,0.568c-3.299,1.636-6.605,3.197-6.605,3.198      l-0.259,0.122c-2.59,1.223-5.681,0.115-6.903-2.475c-1.224-2.589-0.115-5.681,2.474-6.904c0.068-0.032,0.154-0.07,0.223-0.099      c0,0,3.767-1.567,7.54-3.061c0.472-0.188,0.92-0.32,1.374-0.481c0.451-0.151,0.896-0.3,1.326-0.444      c0.861-0.285,1.665-0.551,2.354-0.778c1.379-0.456,2.297-0.76,2.297-0.76c2.422-0.802,5.035,0.511,5.837,2.932      C601.973,143.729,600.825,146.194,598.659,147.136z"
             id="path274" /><path
             d="M568.287,163.46c0,0-3.061,2.359-6.12,4.718c-2.621,2.373-5.275,4.714-5.275,4.714l-0.376,0.332      c-2.26,1.994-5.708,1.778-7.702-0.481c-1.974-2.237-1.779-5.641,0.417-7.644c0,0,3.102-2.827,6.204-5.653      c1.524-1.209,3.068-2.36,4.218-3.247c1.152-0.881,1.921-1.468,1.921-1.468l0.009-0.007c2.416-1.847,5.872-1.385,7.718,1.031      C571.146,158.172,570.703,161.614,568.287,163.46z"
             id="path276" /><path
             d="M544.616,187.6c0,0-0.508,0.823-1.269,2.058c-0.192,0.308-0.4,0.642-0.62,0.994c-0.217,0.35-0.386,0.681-0.593,1.044      c-0.403,0.719-0.832,1.486-1.262,2.253c-0.41,0.812-0.82,1.623-1.204,2.383c-0.404,0.753-0.708,1.49-0.99,2.113      c-0.563,1.249-0.938,2.082-0.938,2.082l-0.102,0.226c-1,2.217-3.607,3.205-5.825,2.205c-2.078-0.937-3.068-3.304-2.364-5.42      c0,0,0.326-0.969,0.816-2.422c0.251-0.726,0.522-1.582,0.895-2.467c0.357-0.893,0.739-1.846,1.121-2.798      c0.43-0.955,0.888-1.914,1.308-2.811c0.211-0.44,0.417-0.903,0.61-1.275c0.193-0.368,0.375-0.716,0.544-1.037      c0.681-1.281,1.135-2.135,1.135-2.135c1.306-2.457,4.356-3.389,6.813-2.083c2.457,1.306,3.39,4.356,2.083,6.813      C544.728,187.412,544.669,187.513,544.616,187.6z"
             id="path278" /><path
             d="M532.112,219.317c0,0-0.263,1.863-0.568,3.723c-0.295,1.861-0.622,3.72-0.622,3.72      c-0.221,1.257-1.418,2.097-2.675,1.876c-1.083-0.19-1.855-1.109-1.908-2.163c0,0-0.095-1.885-0.158-3.769      c-0.074-1.884-0.104-3.765-0.104-3.765c-0.027-1.675,1.309-3.055,2.984-3.082c1.675-0.027,3.055,1.309,3.082,2.984      C532.144,218.996,532.132,219.168,532.112,219.317z"
             id="path280" /></g></g><g
         id="l_top_path"><g
           id="g297"><path
             d="M525.057,230.865c0,0-0.454-0.118-1.136-0.294c-0.681-0.181-1.591-0.412-2.504-0.626      c-1.822-0.451-3.653-0.851-3.653-0.851c-1.078-0.235-1.76-1.3-1.525-2.377c0.225-1.033,1.212-1.703,2.243-1.55l0.022,0.003      c0,0,1.854,0.28,3.718,0.509c0.93,0.125,1.863,0.234,2.563,0.309c0.701,0.078,1.167,0.13,1.167,0.13      c1.33,0.148,2.287,1.347,2.138,2.676c-0.148,1.33-1.347,2.287-2.676,2.139c-0.111-0.013-0.22-0.032-0.326-0.059L525.057,230.865      z"
             id="path285" /><path
             d="M496.791,225.624c0,0-3.988-0.407-7.977-0.815c-3.99-0.396-7.995-0.674-7.995-0.674      c-1.228-0.086-2.155-1.151-2.069-2.379c0.086-1.229,1.151-2.155,2.379-2.069c0.079,0.005,0.159,0.016,0.235,0.029      c0,0,3.952,0.701,7.919,1.286c3.968,0.573,7.937,1.145,7.937,1.145c0.958,0.138,1.623,1.027,1.485,1.985      C498.569,225.063,497.719,225.717,496.791,225.624z"
             id="path287" /><path
             d="M459.555,223.784c0,0-1.006,0.019-2.514,0.048c-1.508,0.026-3.516,0.021-5.525,0.034      c-4.018,0.012-8.026-0.122-8.026-0.122c-2.696-0.089-4.81-2.347-4.721-5.043s2.347-4.81,5.043-4.721      c0.099,0.003,0.213,0.011,0.311,0.02c0,0,3.992,0.387,7.975,0.919c1.991,0.273,3.983,0.528,5.475,0.75      c1.492,0.224,2.486,0.373,2.486,0.373c2.126,0.318,3.592,2.3,3.273,4.426C463.045,222.375,461.42,223.75,459.555,223.784z"
             id="path289" /><path
             d="M422.445,223.197c0,0-4.009,0.009-8.018,0.018c-4.009-0.034-8.018-0.067-8.018-0.067      c-2.745-0.021-4.953-2.264-4.932-5.009c0.021-2.711,2.218-4.899,4.917-4.932c0,0,4.009-0.043,8.018-0.086      c4.009-0.001,8.018-0.002,8.018-0.002c2.783-0.002,5.041,2.252,5.043,5.035C427.476,220.937,425.229,223.195,422.445,223.197z"
             id="path291" /><path
             d="M385.439,223.685c0,0-1,0.065-2.501,0.164c-1.501,0.092-3.5,0.244-5.503,0.344c-4.004,0.221-8.009,0.441-8.009,0.441      c-2.339,0.131-4.341-1.659-4.472-3.998c-0.126-2.248,1.54-4.188,3.746-4.451c0,0,3.983-0.463,7.967-0.926      c1.991-0.241,3.987-0.431,5.481-0.596c1.495-0.158,2.492-0.264,2.492-0.264c2.56-0.273,4.856,1.581,5.129,4.14      c0.273,2.56-1.58,4.856-4.14,5.129C385.574,223.675,385.495,223.681,385.439,223.685z"
             id="path293" /><path
             d="M348.498,226.654c0,0-1.861,0.253-3.728,0.478c-1.865,0.231-3.73,0.463-3.73,0.463      c-1.594,0.198-3.046-0.933-3.245-2.526c-0.184-1.473,0.77-2.825,2.173-3.179c0,0,1.822-0.46,3.645-0.92      c1.821-0.467,3.647-0.906,3.647-0.906c1.803-0.434,3.616,0.676,4.049,2.479c0.434,1.803-0.676,3.616-2.479,4.049      C348.722,226.618,348.607,226.639,348.498,226.654z"
             id="path295" /></g></g></g><g
       id="compass"><g
         id="g303"><path
           d="M747.484,272.222c-0.518,0-1.041-0.143-1.51-0.442l-13.594-8.672c-1.07-0.683-1.55-1.997-1.172-3.209     s1.522-2.03,2.789-1.973l15.209,0.569l-5.395-3.628c-1.289-0.866-1.631-2.614-0.764-3.903c0.868-1.287,2.614-1.629,3.903-0.765     l13.594,9.141c1.043,0.701,1.494,2.01,1.105,3.204c-0.39,1.195-1.517,1.99-2.78,1.94l-14.736-0.551l4.864,3.104     c1.311,0.836,1.695,2.574,0.858,3.884C749.321,271.762,748.412,272.222,747.484,272.222z"
           id="path301" /></g><path
         d="M840.345,271.277c-0.772-1.544-2.648-2.169-4.193-1.397c-3.998,2-7.834,4.012-11.545,6.036    c-6.492-5.887-14.896-9.334-23.738-9.334c-2.875,0-5.771,0.359-8.607,1.069c-5.92,1.479-11.702,4.756-16.301,8.985l-16.934-10.377    c-1.47-0.898-3.396-0.439-4.298,1.032c-0.901,1.472-0.439,3.396,1.031,4.298l15.893,9.738c-1.136,1.492-2.119,3.05-2.92,4.647    c-3.216,6.414-3.51,13.16-0.851,19.51c1.255,2.997,2.898,5.721,4.84,8.167c-3.407,3.486-6.596,7.056-9.556,10.736    c-1.081,1.344-0.868,3.312,0.476,4.393c0.578,0.465,1.27,0.69,1.957,0.69c0.914,0,1.82-0.398,2.438-1.166    c2.786-3.463,5.797-6.823,9.004-10.113c6.423,5.584,14.92,8.765,24.299,8.766c0.002,0,0.002,0,0.005,0    c10.563,0,20.37-4.171,26.501-11.194l4.79,2.936c0.511,0.312,1.073,0.461,1.631,0.461c1.052,0,2.078-0.531,2.667-1.493    c0.901-1.472,0.439-3.396-1.031-4.298l-4.488-2.75c2.694-5.041,4.496-12.203,2.396-21.741c-0.047-0.213-0.116-0.421-0.207-0.619    c-1.251-2.759-2.819-5.298-4.621-7.611c3.217-1.734,6.529-3.46,9.966-5.178C840.49,274.698,841.116,272.82,840.345,271.277z     M793.776,273.714c2.342-0.586,4.728-0.883,7.092-0.883c6.551,0,12.818,2.319,17.918,6.339    c-6.854,3.927-13.223,7.914-19.116,11.995l-18.158-11.127C785.09,277.087,789.383,274.812,793.776,273.714z M774.319,288.776    c0.721-1.438,1.634-2.834,2.688-4.166l17.136,10.502c-6.178,4.571-11.813,9.269-16.96,14.134    c-1.362-1.809-2.566-3.852-3.538-6.174C771.686,298.388,771.912,293.579,774.319,288.776z M801.344,320.708h-0.004    c-6.386-0.001-13.867-1.981-19.823-6.93c5.522-5.216,11.62-10.245,18.397-15.131l22.507,13.793    C817.427,317.643,809.706,320.708,801.344,320.708z M827.775,290.543c1.324,6.291,0.724,12.009-1.713,16.796l-20.558-12.598    c5.548-3.742,11.522-7.409,17.932-11.03C825.138,285.759,826.609,288.043,827.775,290.543z"
         id="path305" /></g><g
       id="houses"><g
         id="house_4"><polygon
           fill="#C5972C"
           points="482.942,390.004 483.143,427.253 466.755,424.292 466.755,388.08    "
           id="polygon308" /><path
           fill="#5F3C98"
           d="M530.742,358.716v31.125l-17.712,33.576l-1.038,1.899v-54.525l4.175,4.926     c0.538,0.637,1.325,0.999,2.15,0.999c0.075,0,0.15,0,0.226-0.012c0.899-0.076,1.712-0.575,2.175-1.35L530.742,358.716z"
           id="path310" /><path
           fill="#AE9A8A"
           d="M506.367,364.205v67.362l-17.6-3.288l-0.213-40.799c-0.012-1.414-1.075-2.613-2.487-2.776l-21.801-2.574     c-0.799-0.101-1.6,0.15-2.199,0.688s-0.938,1.3-0.938,2.1v38.45l-16.175-2.425v-62.188l31.2-28L506.367,364.205z"
           id="path312" /><polygon
           fill="#F5963A"
           points="503.742,293.216 538.742,335.216 531.142,347.142 517.93,369.092 511.38,361.378      511.268,361.242 511.167,361.142 480.143,326.779    "
           id="polygon314" /><path
           fill="#BF368F"
           d="M484.955,310.154l-9.976,14.2c-0.175,0.087-0.337,0.213-0.487,0.351l-19.138,17.162l12.063-15.037     L484.955,310.154z"
           id="path316" /><path
           d="M544.38,333.191c0.788,0.95,0.862,2.288,0.212,3.326l-8.224,12.888v41.137c0,0.462-0.113,0.913-0.326,1.313     l-18.049,34.211l-5.65,10.351c-0.501,0.925-1.45,1.475-2.463,1.475c-0.175,0-0.35-0.024-0.525-0.049l-23.887-4.45l-0.138-0.025     l-21.813-3.949l-0.075-0.013l-21.713-3.263c-1.375-0.213-2.399-1.389-2.399-2.788v-59.612l-5.399,4.774     c-1.101,0.963-2.751,0.925-3.813-0.074c-1.05-1.013-1.163-2.663-0.249-3.8l33.287-41.488c0.075-0.087,0.162-0.188,0.249-0.275     l38.213-36.324c0.013-0.013,0.025-0.013,0.025-0.024c0.05-0.051,0.112-0.101,0.162-0.139c0.101-0.075,0.213-0.149,0.325-0.225     c0.125-0.075,0.262-0.138,0.4-0.187c0.075-0.038,0.162-0.063,0.249-0.088c0.075-0.025,0.15-0.038,0.237-0.051     c0.063-0.024,0.139-0.037,0.214-0.037c0.087-0.013,0.187-0.025,0.287-0.025h0.063c0.125,0,0.263,0.013,0.388,0.038     c0.112,0.013,0.225,0.037,0.324,0.063c0.176,0.05,0.351,0.112,0.525,0.199c0.112,0.063,0.237,0.139,0.35,0.214     c0.101,0.074,0.188,0.137,0.275,0.225c0.112,0.088,0.2,0.187,0.288,0.3L544.38,333.191z M538.742,335.216l-35-42l-23.6,33.563     l31.024,34.363l0.101,0.1l0.112,0.137l6.55,7.714l13.212-21.95L538.742,335.216z M530.742,389.841v-31.125l-10.024,16.639     c-0.463,0.774-1.275,1.273-2.175,1.35c-0.075,0.012-0.15,0.012-0.226,0.012c-0.825,0-1.612-0.362-2.15-0.999l-4.175-4.926v54.525     l1.038-1.899L530.742,389.841z M506.367,431.567v-67.362l-30.212-33.45l-31.2,28v62.188l16.175,2.425v-38.45     c0-0.8,0.338-1.563,0.938-2.1s1.4-0.788,2.199-0.688l21.801,2.574c1.412,0.163,2.476,1.362,2.487,2.776l0.213,40.799     L506.367,431.567z M474.979,324.354l9.976-14.2l-17.538,16.676l-12.063,15.037l19.138-17.162     C474.643,324.567,474.805,324.441,474.979,324.354z M483.143,427.253l-0.2-37.249l-16.188-1.925v36.212L483.143,427.253z"
           id="path318" /></g><g
         id="house_3"><polygon
           id="door"
           fill="#FFFFFF"
           points="324.018,190.716 324.018,226.517 313.005,229.929 313.005,192.729    " /><path
           fill="#3C65B0"
           d="M290.03,178.029v55.775l-40.775-23.475v-41.925l35.037,14.05c0.351,0.137,0.7,0.199,1.051,0.199     c0.562,0,1.111-0.175,1.587-0.487c0.175-0.125,0.351-0.274,0.513-0.45c0.075-0.088,0.15-0.175,0.213-0.274L290.03,178.029z"
           id="path322" /><path
           fill="#F1EA3F"
           d="M335.968,161.804v61.162l-6.325,1.862v-37.487c0-0.837-0.362-1.625-1.013-2.162     c-0.637-0.537-1.476-0.75-2.3-0.6l-16.65,3.037c-1.337,0.25-2.3,1.413-2.3,2.775v41.225l-11.725,3.338v-65.025l22.137-32.162     L335.968,161.804z"
           id="path324" /><path
           fill="#F26638"
           d="M313.255,134.429l-22.725,33.025l-0.025,0.037l-6.188,8.899l-36.825-14.861     c-0.188-0.075-0.388-0.126-0.587-0.163l-3.788-1.712l26.726-39.976L313.255,134.429z"
           id="path326" /><path
           d="M328.63,185.179c-0.637-0.537-1.476-0.75-2.3-0.6l-16.65,3.037c-1.337,0.25-2.3,1.413-2.3,2.775v1.574     c7.413-0.699,14.838-1.25,22.263-1.625v-3C329.643,186.504,329.28,185.716,328.63,185.179z M347.542,167.304l-6.512-8.138     l-0.051-0.062l-21.05-27.838l-0.038-0.038c-0.062-0.087-0.137-0.162-0.212-0.237c-0.162-0.175-0.35-0.324-0.563-0.45     c-0.063-0.037-0.138-0.075-0.225-0.112c-0.088-0.051-0.2-0.088-0.3-0.125l-0.226-0.075l-48.75-16.563     c-1.213-0.412-2.538,0.038-3.25,1.101l-29.763,44.524c-0.463,0.688-0.6,1.55-0.375,2.337c0.238,0.801,0.801,1.451,1.55,1.788     l5.851,2.65v45.888c0,0.999,0.538,1.937,1.4,2.438l46.237,26.611l0.175,0.101c0.188,0.113,0.388,0.2,0.588,0.25     c0.087,0.025,0.162,0.05,0.25,0.063c0.074,0.025,0.137,0.038,0.212,0.038c0.113,0.012,0.237,0.024,0.351,0.024     c0.188,0,0.375-0.024,0.562-0.063c0.025,0,0.051-0.013,0.063-0.013c0.075-0.013,0.15-0.024,0.212-0.05l17.275-4.899     c0.024-0.013,0.037-0.013,0.063-0.025l0.025-0.013l16.574-5.124l0.05-0.014l11.912-3.499c1.188-0.363,2.014-1.45,2.014-2.7v-56.2     l1.55,1.938c0.563,0.7,1.375,1.063,2.2,1.063c0.625,0,1.237-0.213,1.762-0.625C348.317,170.292,348.505,168.517,347.542,167.304z      M243.117,159.655l26.726-39.976l43.412,14.75h0.013l-22.737,33.025l-0.025,0.037l-6.188,8.899v0.013l-36.949-14.824     l-0.463-0.213L243.117,159.655z M290.03,233.804l-40.775-23.475v-42.025l35.037,14.15c0.351,0.137,0.7,0.199,1.051,0.199     c0.562,0,1.111-0.175,1.587-0.487c0.175-0.125,0.351-0.274,0.513-0.45c0.075-0.088,0.15-0.175,0.213-0.274l2.375-3.413V233.804z      M324.018,226.517l-11.013,3.412v-37.2l11.013-2.013V226.517z M335.968,222.966l-6.325,1.862v-37.487     c0-0.837-0.362-1.625-1.013-2.162c-0.637-0.537-1.476-0.75-2.3-0.6l-16.65,3.037c-1.337,0.25-2.3,1.413-2.3,2.775v41.225     l-11.725,3.338v-65.025l22.137-32.162l18.176,24.037V222.966z"
           id="path328" /></g><g
         id="house_2"><polygon
           fill="#946626"
           points="960.579,172.754 960.579,211.642 949.329,217.417 949.329,177.292    "
           id="polygon331" /><path
           fill="#85C440"
           d="M922.38,182.253v45.176l-35.162-20.6v-40.976l32.975,16.275c0.4,0.199,0.825,0.287,1.238,0.287     C921.755,182.417,922.079,182.367,922.38,182.253z"
           id="path333" /><path
           fill="#9492BC"
           d="M977.454,148.304v55.512l-11.25,5.163v-40.388c0-0.938-0.461-1.813-1.236-2.324     c-0.775-0.525-1.75-0.638-2.626-0.287l-16.875,6.8c-1.062,0.425-1.763,1.462-1.763,2.612v44.875l-15.699,7.588v-54.226     l27.813-44.338L977.454,148.304z"
           id="path335" /><path
           fill="#F5C724"
           d="M950.979,126.417l-28.125,44.825l-0.05,0.074c-0.024,0.038-0.05,0.088-0.074,0.139l-0.014,0.024     l-2.45,4.413l-34.461-17.013l-4.113-2.7l25.575-33.226l3.024-3.949l4.826-6.112L950.979,126.417z"
           id="path337" /><path
           d="M982.117,144.917l-25.074-22.038c-0.025-0.012-0.038-0.037-0.063-0.037c-0.074-0.074-0.162-0.137-0.249-0.188     c-0.063-0.037-0.126-0.088-0.188-0.111c-0.111-0.075-0.237-0.126-0.362-0.176h-0.012l-41-15.463     c-1.151-0.438-2.438-0.074-3.2,0.888l-6.112,7.763l-1.126,1.462l-5.387,7.001l-23.963,31.137     c-0.476,0.625-0.675,1.413-0.538,2.188c0.126,0.775,0.575,1.451,1.226,1.888l5.525,3.612v45.601c0,0.987,0.524,1.913,1.388,2.425     l40.638,23.813l0.149,0.088c0.075,0.05,0.15,0.087,0.237,0.125c0.375,0.174,0.775,0.262,1.188,0.262c0.1,0,0.213,0,0.313-0.013     c0.175-0.024,0.351-0.062,0.525-0.112c0.088-0.024,0.174-0.062,0.25-0.1c0.088-0.025,0.174-0.075,0.25-0.112l21.212-10.25     c0.024-0.013,0.038-0.025,0.063-0.038c0.013,0,0.025,0,0.025-0.013l16.699-8.587c0.014,0,0.026-0.013,0.038-0.013l16.875-7.737     c1-0.463,1.637-1.463,1.637-2.55v-58.601C983.079,146.217,982.73,145.454,982.117,144.917z M922.38,227.429l-35.162-20.6v-40.976     l32.975,16.275c0.4,0.199,0.825,0.287,1.238,0.287c0.324,0,0.648-0.05,0.949-0.163V227.429z M922.854,171.242l-0.05,0.074     c-0.024,0.038-0.05,0.088-0.074,0.139l-0.014,0.024l-2.45,4.413l-34.461-17.013l-4.113-2.7l22.574-29.325l3.001-3.9l2.374-3.1     l0.65-0.85l4.826-6.112l35.861,13.524l-7.963,12.7l-4.661,7.413L922.854,171.242z M960.579,211.642l-11.25,5.774v-40.125     l11.25-4.537V211.642z M977.454,203.816l-11.25,5.163v-40.388c0-0.938-0.461-1.813-1.236-2.324     c-0.775-0.525-1.75-0.638-2.626-0.287l-16.875,6.8c-1.062,0.425-1.763,1.462-1.763,2.612v44.875l-15.699,7.588v-54.226     l15.225-24.275l4.663-7.425l7.925-12.638l21.637,19.013V203.816z"
           id="path339" /></g><g
         id="house_1"><g
           id="g348"><polygon
             fill="#7CCFDB"
             points="714.255,68.517 714.255,113.517 665.743,144.692 665.743,67.692 676.993,83.754     "
             id="polygon342" /><polygon
             fill="#3C65B0"
             points="665.743,67.692 665.743,144.692 649.329,135.317 649.567,92.654 631.755,85.392       631.755,125.004 615.343,115.392 615.343,56.091 640.892,32.192     "
             id="polygon344" /><polygon
             fill="#977E7B"
             points="649.567,92.654 649.329,135.317 631.755,125.004 631.755,85.392     "
             id="polygon346" /></g><polygon
           fill="#F5914E"
           points="709.802,43.904 706.521,38.748 691.989,16.951 641.125,32.185 676.989,83.748 714.25,68.513      723.625,64.06    "
           id="polygon350" /><path
           d="M725.942,62.467L712.18,42.392l-3.325-5.2l-14.525-21.8c-0.688-1.025-1.961-1.488-3.149-1.138l-50.524,15.138     c-0.625,0.049-1.226,0.313-1.688,0.749l-25.512,23.863l-0.013,0.013l-0.025,0.024l-8.175,7.476     c-1.138,1.049-1.226,2.825-0.175,3.975c0.563,0.6,1.313,0.912,2.074,0.912c0.688,0,1.363-0.237,1.9-0.736l3.488-3.188v52.913     c0,0.999,0.524,1.925,1.388,2.425l16.412,9.612l17.575,10.313c0.012,0,0.012,0.013,0.025,0.013h0.012l16.225,9.274l0.176,0.101     c0.2,0.112,0.399,0.199,0.611,0.263c0.076,0.024,0.15,0.037,0.227,0.05c0.074,0.025,0.149,0.037,0.212,0.037     c0.124,0.013,0.237,0.025,0.351,0.025c0.112,0,0.225-0.013,0.337-0.025c0.074,0,0.149-0.012,0.225-0.037     c0.338-0.063,0.663-0.2,0.963-0.388l0.112-0.075l48.399-31.1c0.801-0.513,1.288-1.4,1.288-2.362V70.292l7.763-3.687     c0.749-0.351,1.3-1.013,1.513-1.813C726.555,63.992,726.404,63.154,725.942,62.467z M646.542,130.417l-11.975-7.024V89.58     l12.176,4.962L646.542,130.417z M662.931,139.841l-10.775-6.149l0.225-41.025c0-1.149-0.688-2.188-1.75-2.612l-17.813-7.263     c-0.862-0.362-1.85-0.263-2.625,0.263c-0.787,0.524-1.25,1.4-1.25,2.338v34.699l-10.787-6.313V57.317l22.287-20.862     l22.488,32.112V139.841z M711.442,111.979l-42.887,27.563v-62.95l5.574,7.963l0.55,0.801c0.537,0.774,1.412,1.212,2.313,1.212     c0.349,0,0.711-0.075,1.062-0.213l33.388-13.649V111.979z M713.117,65.942l-35.112,14.362v-0.013l-32.35-46.524l45.15-13.525     l13.337,20.013l3.337,5.237l11.963,17.438L713.117,65.942z"
           id="path352" /></g></g></g></svg>