<?xml version="1.0" encoding="UTF-8" standalone="no"?>
<!--part of the matt icon theme by sixsixfive released under CC0 (https://creativecommons.org/publicdomain/zero/1.0/) on openclipart-->
<svg xmlns:dc="http://purl.org/dc/elements/1.1/" xmlns:cc="http://creativecommons.org/ns#" xmlns:rdf="http://www.w3.org/1999/02/22-rdf-syntax-ns#" xmlns:svg="http://www.w3.org/2000/svg" xmlns="http://www.w3.org/2000/svg" xmlns:xlink="http://www.w3.org/1999/xlink" xmlns:sodipodi="http://sodipodi.sourceforge.net/DTD/sodipodi-0.dtd" xmlns:inkscape="http://www.inkscape.org/namespaces/inkscape" viewBox="0 0 608 384.00009" id="svg2" version="1.1" inkscape:version="0.48.5 r10040" sodipodi:docname="Smartphone Landscape Mode.svg">
  <metadata id="metadata62">
    <rdf:RDF>
      <cc:Work rdf:about="">
        <dc:format>image/svg+xml</dc:format>
        <dc:type rdf:resource="http://purl.org/dc/dcmitype/StillImage"/>
      </cc:Work>
    </rdf:RDF>
  </metadata>
  <sodipodi:namedview pagecolor="#ffffff" bordercolor="#666666" borderopacity="1" objecttolerance="10" gridtolerance="10" guidetolerance="10" inkscape:pageopacity="0" inkscape:pageshadow="2" inkscape:window-width="1658" inkscape:window-height="1137" id="namedview60" showgrid="false" fit-margin-top="0" fit-margin-left="0" fit-margin-right="0" fit-margin-bottom="0" inkscape:zoom="0.70710678" inkscape:cx="136.23171" inkscape:cy="44.345104" inkscape:window-x="0" inkscape:window-y="0" inkscape:window-maximized="0" inkscape:current-layer="svg2" inkscape:showpageshadow="false"/>
  <defs id="0">
    <linearGradient id="linearGradient5494">
      <stop id="stop5496" style="stop-color:#788128;stop-opacity:1;" offset="0"/>
      <stop id="stop5498" style="stop-color:#5d6932;stop-opacity:1;" offset="1"/>
    </linearGradient>
    <pattern inkscape:collect="always" xlink:href="#pattern5359" id="pattern5472" patternTransform="matrix(1.9387597,0,0,1.6492482,-750.63049,38.249876)"/>
    <pattern inkscape:collect="always" xlink:href="#pattern5298" id="pattern5359" patternTransform="matrix(0.82574215,0,0,0.82462391,-297.18225,19.124935)"/>
    <pattern inkscape:collect="always" xlink:href="#pattern5140" id="pattern5298" patternTransform="matrix(0.82574215,0,0,0.82462391,-297.18225,19.124935)"/>
    <pattern inkscape:collect="always" xlink:href="#pattern4167" id="pattern5140" patternTransform="matrix(0.82574215,0,0,0.82462391,-297.18225,19.124935)"/>
    <pattern inkscape:collect="always" xlink:href="#Wavywhite" id="pattern4167" patternTransform="matrix(0.82574215,0,0,0.82462391,-297.18225,19.124935)"/>
    <linearGradient id="I">
      <stop id="j"/>
      <stop id="k" offset="1" stop-opacity="0"/>
    </linearGradient>
    <linearGradient id="J">
      <stop id="l" stop-color="#eee"/>
      <stop id="m" offset="1" stop-color="#eee" stop-opacity="0"/>
    </linearGradient>
    <linearGradient id="K">
      <stop id="n" stop-color="#3d82d4"/>
      <stop id="o" offset="1" stop-color="#2c72c7"/>
    </linearGradient>
    <linearGradient id="L">
      <stop id="p" stop-color="#323232"/>
      <stop id="q" offset="1" stop-color="#434343"/>
    </linearGradient>
    <filter x="-0.039000001" y="-0.132" width="1.0779999" height="1.265" color-interpolation-filters="sRGB" id="M">
      <feGaussianBlur id="r" stdDeviation="2.91533"/>
    </filter>
    <filter x="-0.161" y="-0.185" width="1.321" height="1.3710001" color-interpolation-filters="sRGB" id="N">
      <feGaussianBlur id="s" stdDeviation="2.95053"/>
    </filter>
    <radialGradient cx="966.53998" cy="1111.16" r="383.91" id="O" xlink:href="#K" gradientUnits="userSpaceOnUse" gradientTransform="matrix(0.0497876,0.23862255,-0.20146298,0.04192063,256.83585,-217.88133)"/>
    <radialGradient cx="55.040001" cy="132.17999" r="58.75" id="P" xlink:href="#L" gradientUnits="userSpaceOnUse" gradientTransform="matrix(11.868013,-3.2056181,1.5054816,5.5585903,-585.98588,-161.99992)"/>
    <radialGradient cx="64" cy="-10.72" r="58.730999" id="Q" xlink:href="#J" gradientUnits="userSpaceOnUse" gradientTransform="matrix(6.1082758,-0.04139963,0.02066902,3.0413408,-86.708065,-2.479964)"/>
    <radialGradient cx="61.619999" cy="105.7" r="46.049999" id="R" xlink:href="#I" gradientUnits="userSpaceOnUse" gradientTransform="matrix(1.4368726,5.5946337e-8,0,0.0487106,-26.920532,100.55159)"/>
    <filter x="-0.016000001" y="-0.32699999" width="1.0319999" height="1.655" color-interpolation-filters="sRGB" id="S">
      <feGaussianBlur id="t" stdDeviation="0.61181"/>
    </filter>
    <linearGradient x1="498" y1="146" gradientTransform="translate(0.21783,-0.59911)" x2="738" gradientUnits="userSpaceOnUse" y2="224.72" id="linearGradient5474">
      <stop offset="0" style="stop-color:#a85910;stop-opacity:1;" id="stop5276"/>
      <stop offset="1" style="stop-color:#df9a45;stop-opacity:1;" id="stop5278"/>
    </linearGradient>
    <linearGradient inkscape:collect="always" x1="531.59998" y1="391.29999" gradientTransform="translate(-2.5316,2.5316)" x2="515.19" gradientUnits="userSpaceOnUse" y2="320.42001" id="linearGradient5272">
      <stop offset="0" style="stop-color:#2e3436" id="stop5268"/>
      <stop offset="1" style="stop-color:#2e3436;stop-opacity:0" id="stop5270"/>
    </linearGradient>
    <linearGradient x1="250.5" y1="22.5" gradientTransform="translate(320,-14.5)" x2="251.5" gradientUnits="userSpaceOnUse" y2="43.5" id="linearGradient5208">
      <stop offset="0" style="stop-color:#f7f7f7" id="stop5204"/>
      <stop offset="1" style="stop-color:#f7f7f7;stop-opacity:0" id="stop5206"/>
    </linearGradient>
    <linearGradient x1="375" y1="-108" gradientTransform="matrix(0.99672,0,0,0.74257,1.9934,2.4851)" x2="386" gradientUnits="userSpaceOnUse" y2="134" id="linearGradient5162">
      <stop offset="0" style="stop-color:#49acd1;stop-opacity:1;" id="stop5158"/>
      <stop offset="1" style="stop-color:#b1e5ff;stop-opacity:1;" id="stop5160"/>
    </linearGradient>
    <linearGradient inkscape:collect="always" id="linearGradient3280">
      <stop offset="0" style="stop-color:#c17d11" id="stop3282"/>
      <stop offset="1" style="stop-color:#8f5902" id="stop3284"/>
    </linearGradient>
    <linearGradient id="linearGradient4877">
      <stop offset="0" style="stop-color:#a3b407;stop-opacity:1;" id="stop4879"/>
      <stop offset="1" style="stop-color:#5d7700;stop-opacity:1;" id="stop4881"/>
    </linearGradient>
    <linearGradient inkscape:collect="always" id="linearGradient4925">
      <stop offset="0" style="stop-color:#c0ce43" id="stop4927"/>
      <stop offset="1" style="stop-color:#626200" id="stop4929"/>
    </linearGradient>
    <pattern inkscape:collect="always" inkscape:stockid="Wavy white" patternTransform="translate(-.42893 1)" patternUnits="userSpaceOnUse" width="30.066020" height="5.1805778" id="Wavywhite">
      <path d="m7.597 0.061c-2.518-0.248-4.941 0.241-7.607 1.727v1.273c2.783-1.63 5.183-2.009 7.482-1.781 2.298 0.228 4.497 1.081 6.781 1.938 4.567 1.713 9.551 3.458 15.813-0.157l-0.004-1.273c-6.44 3.709-10.816 1.982-15.371 0.273-2.278-0.854-4.576-1.75-7.094-2z" style="fill:white" id="path4647"/>
    </pattern>
    <linearGradient inkscape:collect="always" xlink:href="#linearGradient3280" id="linearGradient3338" gradientUnits="userSpaceOnUse" x1="230.52" y1="394.45001" x2="227.33" y2="324.45001"/>
    <linearGradient inkscape:collect="always" xlink:href="#linearGradient4877" id="linearGradient3340" gradientUnits="userSpaceOnUse" x1="240.42" y1="209.14999" x2="213.55" y2="270"/>
    <linearGradient inkscape:collect="always" xlink:href="#linearGradient3280" id="linearGradient3342" gradientUnits="userSpaceOnUse" x1="230.52" y1="394.45001" x2="227.33" y2="324.45001"/>
    <linearGradient inkscape:collect="always" xlink:href="#linearGradient4877" id="linearGradient3344" gradientUnits="userSpaceOnUse" x1="240.42" y1="209.14999" x2="213.55" y2="270"/>
    <linearGradient inkscape:collect="always" xlink:href="#linearGradient5474" id="linearGradient4171" gradientUnits="userSpaceOnUse" gradientTransform="matrix(0.82574215,0,0,0.82462391,-296.64819,17.806271)" x1="498" y1="146" x2="738" y2="224.72"/>
    <linearGradient inkscape:collect="always" xlink:href="#linearGradient4925" id="linearGradient4174" gradientUnits="userSpaceOnUse" gradientTransform="matrix(0.64224573,0,0,0.64137599,76.1349,-138.93073)" x1="221.57001" y1="326.14001" x2="192" y2="424.5"/>
    <linearGradient inkscape:collect="always" xlink:href="#linearGradient5272" id="linearGradient4915" gradientUnits="userSpaceOnUse" gradientTransform="matrix(0.65236107,0,0,0.65147763,-348.85977,-83.384032)" x1="531.59998" y1="391.29999" x2="515.19" y2="320.42001"/>
    <linearGradient inkscape:collect="always" xlink:href="#linearGradient5162" id="linearGradient4929" gradientUnits="userSpaceOnUse" gradientTransform="matrix(0.8230337,0,0,0.61234098,-295.18202,20.349584)" x1="375" y1="-108" x2="386" y2="134"/>
    <linearGradient inkscape:collect="always" xlink:href="#linearGradient5208" id="linearGradient4937" gradientUnits="userSpaceOnUse" gradientTransform="matrix(0.82574215,0,0,0.82462391,-32.590568,6.3432685)" x1="250.5" y1="22.5" x2="251.5" y2="43.5"/>
    <linearGradient inkscape:collect="always" xlink:href="#linearGradient3280" id="linearGradient4967" gradientUnits="userSpaceOnUse" x1="230.52" y1="394.45001" x2="227.33" y2="324.45001"/>
    <linearGradient inkscape:collect="always" xlink:href="#linearGradient4877" id="linearGradient4969" gradientUnits="userSpaceOnUse" x1="240.42" y1="209.14999" x2="213.55" y2="270"/>
    <linearGradient inkscape:collect="always" xlink:href="#linearGradient3280" id="linearGradient4971" gradientUnits="userSpaceOnUse" x1="230.52" y1="394.45001" x2="227.33" y2="324.45001"/>
    <linearGradient inkscape:collect="always" xlink:href="#linearGradient4877" id="linearGradient4973" gradientUnits="userSpaceOnUse" x1="240.42" y1="209.14999" x2="213.55" y2="270"/>
    <linearGradient inkscape:collect="always" xlink:href="#linearGradient4925" id="linearGradient4982" gradientUnits="userSpaceOnUse" gradientTransform="matrix(0.3297418,0,0,0.32929526,10.187084,-21.381722)" x1="221.57001" y1="326.14001" x2="192" y2="424.5"/>
    <radialGradient inkscape:collect="always" xlink:href="#K" id="radialGradient5099" gradientUnits="userSpaceOnUse" gradientTransform="matrix(0.0497876,0.23862255,-0.20146298,0.04192063,256.83585,-217.88133)" cx="966.53998" cy="1111.16" r="383.91"/>
    <linearGradient inkscape:collect="always" xlink:href="#linearGradient5162" id="linearGradient5101" gradientUnits="userSpaceOnUse" gradientTransform="matrix(0.8230337,0,0,0.61234098,-295.18202,20.349584)" x1="375" y1="-108" x2="386" y2="134"/>
    <linearGradient inkscape:collect="always" xlink:href="#linearGradient4925" id="linearGradient5103" gradientUnits="userSpaceOnUse" gradientTransform="matrix(0.3297418,0,0,0.32929526,10.187084,-21.381722)" x1="221.57001" y1="326.14001" x2="192" y2="424.5"/>
    <linearGradient inkscape:collect="always" xlink:href="#linearGradient3280" id="linearGradient5105" gradientUnits="userSpaceOnUse" x1="230.52" y1="394.45001" x2="227.33" y2="324.45001"/>
    <linearGradient inkscape:collect="always" xlink:href="#linearGradient4877" id="linearGradient5107" gradientUnits="userSpaceOnUse" x1="240.42" y1="209.14999" x2="213.55" y2="270"/>
    <linearGradient inkscape:collect="always" xlink:href="#linearGradient3280" id="linearGradient5109" gradientUnits="userSpaceOnUse" x1="230.52" y1="394.45001" x2="227.33" y2="324.45001"/>
    <linearGradient inkscape:collect="always" xlink:href="#linearGradient4877" id="linearGradient5111" gradientUnits="userSpaceOnUse" x1="240.42" y1="209.14999" x2="213.55" y2="270"/>
    <linearGradient inkscape:collect="always" xlink:href="#linearGradient5272" id="linearGradient5113" gradientUnits="userSpaceOnUse" gradientTransform="matrix(0.65236107,0,0,0.65147763,-348.85977,-83.384032)" x1="531.59998" y1="391.29999" x2="515.19" y2="320.42001"/>
    <linearGradient inkscape:collect="always" xlink:href="#linearGradient4925" id="linearGradient5115" gradientUnits="userSpaceOnUse" gradientTransform="matrix(0.64224573,0,0,0.64137599,76.1349,-138.93073)" x1="221.57001" y1="326.14001" x2="192" y2="424.5"/>
    <linearGradient inkscape:collect="always" xlink:href="#linearGradient5474" id="linearGradient5117" gradientUnits="userSpaceOnUse" gradientTransform="matrix(0.82574215,0,0,0.82462391,-296.64819,17.806271)" x1="498" y1="146" x2="738" y2="224.72"/>
    <linearGradient inkscape:collect="always" xlink:href="#linearGradient3280" id="linearGradient5119" gradientUnits="userSpaceOnUse" x1="230.52" y1="394.45001" x2="227.33" y2="324.45001"/>
    <linearGradient inkscape:collect="always" xlink:href="#linearGradient4877" id="linearGradient5121" gradientUnits="userSpaceOnUse" x1="240.42" y1="209.14999" x2="213.55" y2="270"/>
    <linearGradient inkscape:collect="always" xlink:href="#linearGradient3280" id="linearGradient5123" gradientUnits="userSpaceOnUse" x1="230.52" y1="394.45001" x2="227.33" y2="324.45001"/>
    <linearGradient inkscape:collect="always" xlink:href="#linearGradient4877" id="linearGradient5125" gradientUnits="userSpaceOnUse" x1="240.42" y1="209.14999" x2="213.55" y2="270"/>
    <linearGradient inkscape:collect="always" xlink:href="#linearGradient5208" id="linearGradient5127" gradientUnits="userSpaceOnUse" gradientTransform="matrix(0.82574215,0,0,0.82462391,-32.590568,6.3432685)" x1="250.5" y1="22.5" x2="251.5" y2="43.5"/>
    <linearGradient inkscape:collect="always" xlink:href="#linearGradient5208" id="linearGradient5130" gradientUnits="userSpaceOnUse" gradientTransform="matrix(0.82574215,0,0,0.82462391,-32.590568,6.3432685)" x1="250.5" y1="22.5" x2="251.5" y2="43.5"/>
    <linearGradient inkscape:collect="always" xlink:href="#linearGradient5474" id="linearGradient5143" gradientUnits="userSpaceOnUse" gradientTransform="matrix(0.82574215,0,0,0.82462391,-296.64819,17.806271)" x1="498" y1="146" x2="738" y2="224.72"/>
    <linearGradient inkscape:collect="always" xlink:href="#linearGradient4925" id="linearGradient5146" gradientUnits="userSpaceOnUse" gradientTransform="matrix(0.64224573,0,0,0.64137599,76.1349,-138.93073)" x1="221.57001" y1="326.14001" x2="192" y2="424.5"/>
    <linearGradient inkscape:collect="always" xlink:href="#linearGradient5272" id="linearGradient5149" gradientUnits="userSpaceOnUse" gradientTransform="matrix(0.65236107,0,0,0.65147763,-348.85977,-83.384032)" x1="531.59998" y1="391.29999" x2="515.19" y2="320.42001"/>
    <linearGradient inkscape:collect="always" xlink:href="#linearGradient4925" id="linearGradient5161" gradientUnits="userSpaceOnUse" gradientTransform="matrix(0.3297418,0,0,0.32929526,10.187084,-21.381722)" x1="221.57001" y1="326.14001" x2="192" y2="424.5"/>
    <linearGradient inkscape:collect="always" xlink:href="#linearGradient5162" id="linearGradient5164" gradientUnits="userSpaceOnUse" gradientTransform="matrix(0.8230337,0,0,0.61234098,-295.18202,20.349584)" x1="375" y1="-108" x2="386" y2="134"/>
    <radialGradient inkscape:collect="always" xlink:href="#K" id="radialGradient5168" gradientUnits="userSpaceOnUse" gradientTransform="matrix(0.0497876,0.23862255,-0.20146298,0.04192063,256.83585,-217.88133)" cx="966.53998" cy="1111.16" r="383.91"/>
    <radialGradient inkscape:collect="always" xlink:href="#K" id="radialGradient5257" gradientUnits="userSpaceOnUse" gradientTransform="matrix(0.0497876,0.23862255,-0.20146298,0.04192063,256.83585,-217.88133)" cx="966.53998" cy="1111.16" r="383.91"/>
    <linearGradient inkscape:collect="always" xlink:href="#linearGradient5162" id="linearGradient5259" gradientUnits="userSpaceOnUse" gradientTransform="matrix(0.8230337,0,0,0.61234098,-295.18202,20.349584)" x1="375" y1="-108" x2="386" y2="134"/>
    <linearGradient inkscape:collect="always" xlink:href="#linearGradient4925" id="linearGradient5261" gradientUnits="userSpaceOnUse" gradientTransform="matrix(0.3297418,0,0,0.32929526,10.187084,-21.381722)" x1="221.57001" y1="326.14001" x2="192" y2="424.5"/>
    <linearGradient inkscape:collect="always" xlink:href="#linearGradient3280" id="linearGradient5263" gradientUnits="userSpaceOnUse" x1="230.52" y1="394.45001" x2="227.33" y2="324.45001"/>
    <linearGradient inkscape:collect="always" xlink:href="#linearGradient4877" id="linearGradient5265" gradientUnits="userSpaceOnUse" x1="240.42" y1="209.14999" x2="213.55" y2="270"/>
    <linearGradient inkscape:collect="always" xlink:href="#linearGradient3280" id="linearGradient5267" gradientUnits="userSpaceOnUse" x1="230.52" y1="394.45001" x2="227.33" y2="324.45001"/>
    <linearGradient inkscape:collect="always" xlink:href="#linearGradient4877" id="linearGradient5269" gradientUnits="userSpaceOnUse" x1="240.42" y1="209.14999" x2="213.55" y2="270"/>
    <linearGradient inkscape:collect="always" xlink:href="#linearGradient5272" id="linearGradient5271" gradientUnits="userSpaceOnUse" gradientTransform="matrix(0.65236107,0,0,0.65147763,-348.85977,-83.384032)" x1="531.59998" y1="391.29999" x2="515.19" y2="320.42001"/>
    <linearGradient inkscape:collect="always" xlink:href="#linearGradient4925" id="linearGradient5273" gradientUnits="userSpaceOnUse" gradientTransform="matrix(0.64224573,0,0,0.64137599,76.1349,-138.93073)" x1="221.57001" y1="326.14001" x2="192" y2="424.5"/>
    <linearGradient inkscape:collect="always" xlink:href="#linearGradient5474" id="linearGradient5275" gradientUnits="userSpaceOnUse" gradientTransform="matrix(0.82574215,0,0,0.82462391,-296.64819,17.806271)" x1="498" y1="146" x2="738" y2="224.72"/>
    <linearGradient inkscape:collect="always" xlink:href="#linearGradient3280" id="linearGradient5277" gradientUnits="userSpaceOnUse" x1="230.52" y1="394.45001" x2="227.33" y2="324.45001"/>
    <linearGradient inkscape:collect="always" xlink:href="#linearGradient4877" id="linearGradient5279" gradientUnits="userSpaceOnUse" x1="240.42" y1="209.14999" x2="213.55" y2="270"/>
    <linearGradient inkscape:collect="always" xlink:href="#linearGradient3280" id="linearGradient5281" gradientUnits="userSpaceOnUse" x1="230.52" y1="394.45001" x2="227.33" y2="324.45001"/>
    <linearGradient inkscape:collect="always" xlink:href="#linearGradient4877" id="linearGradient5283" gradientUnits="userSpaceOnUse" x1="240.42" y1="209.14999" x2="213.55" y2="270"/>
    <linearGradient inkscape:collect="always" xlink:href="#linearGradient5208" id="linearGradient5285" gradientUnits="userSpaceOnUse" gradientTransform="matrix(0.82574215,0,0,0.82462391,-32.590568,6.3432685)" x1="250.5" y1="22.5" x2="251.5" y2="43.5"/>
    <linearGradient inkscape:collect="always" xlink:href="#linearGradient5208" id="linearGradient5288" gradientUnits="userSpaceOnUse" gradientTransform="matrix(1.6514846,0,0,1.6492482,-65.181149,12.686536)" x1="250.5" y1="22.5" x2="251.5" y2="43.5"/>
    <linearGradient inkscape:collect="always" xlink:href="#linearGradient5474" id="linearGradient5301" gradientUnits="userSpaceOnUse" gradientTransform="matrix(0.82574215,0,0,0.82462391,-296.64819,17.806271)" x1="498" y1="146" x2="738" y2="224.72"/>
    <linearGradient inkscape:collect="always" xlink:href="#linearGradient4925" id="linearGradient5304" gradientUnits="userSpaceOnUse" gradientTransform="matrix(0.64224573,0,0,0.64137599,76.1349,-138.93073)" x1="221.57001" y1="326.14001" x2="192" y2="424.5"/>
    <linearGradient inkscape:collect="always" xlink:href="#linearGradient5272" id="linearGradient5307" gradientUnits="userSpaceOnUse" gradientTransform="matrix(0.65236107,0,0,0.65147763,-348.85977,-83.384032)" x1="531.59998" y1="391.29999" x2="515.19" y2="320.42001"/>
    <linearGradient inkscape:collect="always" xlink:href="#linearGradient4925" id="linearGradient5319" gradientUnits="userSpaceOnUse" gradientTransform="matrix(0.3297418,0,0,0.32929526,10.187084,-21.381722)" x1="221.57001" y1="326.14001" x2="192" y2="424.5"/>
    <linearGradient inkscape:collect="always" xlink:href="#linearGradient5162" id="linearGradient5322" gradientUnits="userSpaceOnUse" gradientTransform="matrix(0.8230337,0,0,0.61234098,-295.18202,20.349584)" x1="375" y1="-108" x2="386" y2="134"/>
    <radialGradient inkscape:collect="always" xlink:href="#K" id="radialGradient5325" gradientUnits="userSpaceOnUse" gradientTransform="matrix(0.0497876,0.23862255,-0.20146298,0.04192063,256.83585,-217.88133)" cx="966.53998" cy="1111.16" r="383.91"/>
    <radialGradient inkscape:collect="always" xlink:href="#K" id="radialGradient5345" gradientUnits="userSpaceOnUse" gradientTransform="matrix(0.0497876,0.23862255,-0.20146298,0.04192063,256.83585,-217.88133)" cx="966.53998" cy="1111.16" r="383.91"/>
    <linearGradient inkscape:collect="always" xlink:href="#linearGradient5162" id="linearGradient5347" gradientUnits="userSpaceOnUse" gradientTransform="matrix(0.8230337,0,0,0.61234098,-295.18202,20.349584)" x1="375" y1="-108" x2="386" y2="134"/>
    <linearGradient inkscape:collect="always" xlink:href="#linearGradient4925" id="linearGradient5349" gradientUnits="userSpaceOnUse" gradientTransform="matrix(0.3297418,0,0,0.32929526,10.187084,-21.381722)" x1="221.57001" y1="326.14001" x2="192" y2="424.5"/>
    <linearGradient inkscape:collect="always" xlink:href="#linearGradient5272" id="linearGradient5351" gradientUnits="userSpaceOnUse" gradientTransform="matrix(0.65236107,0,0,0.65147763,-348.85977,-83.384032)" x1="531.59998" y1="391.29999" x2="515.19" y2="320.42001"/>
    <linearGradient inkscape:collect="always" xlink:href="#linearGradient4925" id="linearGradient5353" gradientUnits="userSpaceOnUse" gradientTransform="matrix(0.64224573,0,0,0.64137599,76.1349,-138.93073)" x1="221.57001" y1="326.14001" x2="192" y2="424.5"/>
    <linearGradient inkscape:collect="always" xlink:href="#linearGradient5474" id="linearGradient5355" gradientUnits="userSpaceOnUse" gradientTransform="matrix(0.82574215,0,0,0.82462391,-296.64819,17.806271)" x1="498" y1="146" x2="738" y2="224.72"/>
    <linearGradient inkscape:collect="always" xlink:href="#linearGradient5474" id="linearGradient5362" gradientUnits="userSpaceOnUse" gradientTransform="matrix(0.82574215,0,0,0.82462391,-296.64819,17.806271)" x1="498" y1="146" x2="738" y2="224.72"/>
    <linearGradient inkscape:collect="always" xlink:href="#linearGradient4925" id="linearGradient5365" gradientUnits="userSpaceOnUse" gradientTransform="matrix(0.64224573,0,0,0.64137599,76.1349,-138.93073)" x1="221.57001" y1="326.14001" x2="192" y2="424.5"/>
    <linearGradient inkscape:collect="always" xlink:href="#linearGradient5272" id="linearGradient5368" gradientUnits="userSpaceOnUse" gradientTransform="matrix(0.65236107,0,0,0.65147763,-348.85977,-83.384032)" x1="531.59998" y1="391.29999" x2="515.19" y2="320.42001"/>
    <linearGradient inkscape:collect="always" xlink:href="#linearGradient4925" id="linearGradient5374" gradientUnits="userSpaceOnUse" gradientTransform="matrix(0.3297418,0,0,0.32929526,10.187084,-21.381722)" x1="221.57001" y1="326.14001" x2="192" y2="424.5"/>
    <linearGradient inkscape:collect="always" xlink:href="#linearGradient5162" id="linearGradient5377" gradientUnits="userSpaceOnUse" gradientTransform="matrix(0.8230337,0,0,0.61234098,-295.18202,20.349584)" x1="375" y1="-108" x2="386" y2="134"/>
    <radialGradient inkscape:collect="always" xlink:href="#K" id="radialGradient5380" gradientUnits="userSpaceOnUse" gradientTransform="matrix(0.0497876,0.23862255,-0.20146298,0.04192063,256.83585,-217.88133)" cx="966.53998" cy="1111.16" r="383.91"/>
    <radialGradient inkscape:collect="always" xlink:href="#K" id="radialGradient5420" gradientUnits="userSpaceOnUse" gradientTransform="matrix(0.0497876,0.23862255,-0.20146298,0.04192063,256.83585,-217.88133)" cx="966.53998" cy="1111.16" r="383.91"/>
    <linearGradient inkscape:collect="always" xlink:href="#linearGradient5162" id="linearGradient5422" gradientUnits="userSpaceOnUse" gradientTransform="matrix(0.8230337,0,0,0.61234098,-295.18202,20.349584)" x1="375" y1="-108" x2="386" y2="134"/>
    <linearGradient inkscape:collect="always" xlink:href="#linearGradient4877" id="linearGradient5424" gradientUnits="userSpaceOnUse" gradientTransform="matrix(0.3297418,0,0,0.32929526,10.187084,-21.381722)" x1="221.57001" y1="326.14001" x2="192" y2="424.5"/>
    <linearGradient inkscape:collect="always" xlink:href="#linearGradient5272" id="linearGradient5426" gradientUnits="userSpaceOnUse" gradientTransform="matrix(0.65236107,0,0,0.65147763,-348.85977,-83.384032)" x1="531.59998" y1="391.29999" x2="515.19" y2="320.42001"/>
    <linearGradient inkscape:collect="always" xlink:href="#linearGradient4877" id="linearGradient5428" gradientUnits="userSpaceOnUse" gradientTransform="matrix(0.64224573,0,0,0.64137599,76.1349,-138.93073)" x1="221.57001" y1="326.14001" x2="192" y2="424.5"/>
    <linearGradient inkscape:collect="always" xlink:href="#linearGradient5474" id="linearGradient5430" gradientUnits="userSpaceOnUse" gradientTransform="matrix(0.82574215,0,0,0.82462391,-296.64819,17.806271)" x1="498" y1="146" x2="738" y2="224.72"/>
    <linearGradient inkscape:collect="always" xlink:href="#linearGradient3280" id="linearGradient5432" gradientUnits="userSpaceOnUse" x1="230.52" y1="394.45001" x2="227.33" y2="324.45001"/>
    <linearGradient inkscape:collect="always" xlink:href="#linearGradient4877" id="linearGradient5434" gradientUnits="userSpaceOnUse" x1="240.42" y1="209.14999" x2="213.55" y2="270"/>
    <linearGradient inkscape:collect="always" xlink:href="#linearGradient3280" id="linearGradient5436" gradientUnits="userSpaceOnUse" x1="230.52" y1="394.45001" x2="227.33" y2="324.45001"/>
    <linearGradient inkscape:collect="always" xlink:href="#linearGradient5494" id="linearGradient5438" gradientUnits="userSpaceOnUse" x1="240.42" y1="209.14999" x2="213.55" y2="270"/>
    <linearGradient inkscape:collect="always" xlink:href="#linearGradient3280" id="linearGradient5446" gradientUnits="userSpaceOnUse" x1="230.52" y1="394.45001" x2="227.33" y2="324.45001"/>
    <linearGradient inkscape:collect="always" xlink:href="#linearGradient4877" id="linearGradient5448" gradientUnits="userSpaceOnUse" x1="240.42" y1="209.14999" x2="213.55" y2="270"/>
    <linearGradient inkscape:collect="always" xlink:href="#linearGradient4877" id="linearGradient5466" gradientUnits="userSpaceOnUse" x1="240.42" y1="209.14999" x2="213.55" y2="270"/>
    <linearGradient inkscape:collect="always" xlink:href="#linearGradient5272" id="linearGradient5468" gradientUnits="userSpaceOnUse" gradientTransform="matrix(0.65236107,0,0,0.65147763,-348.85977,-83.384032)" x1="531.59998" y1="391.29999" x2="515.19" y2="320.42001"/>
    <linearGradient inkscape:collect="always" xlink:href="#linearGradient5474" id="linearGradient5475" gradientUnits="userSpaceOnUse" gradientTransform="matrix(1.9387597,0,0,1.6492482,-749.37657,35.612546)" x1="498" y1="146" x2="738" y2="224.72"/>
    <linearGradient inkscape:collect="always" xlink:href="#linearGradient4877" id="linearGradient5478" gradientUnits="userSpaceOnUse" gradientTransform="matrix(1.5079285,0,0,1.2827522,125.88072,-277.86151)" x1="221.57001" y1="326.14001" x2="192" y2="424.5"/>
    <linearGradient inkscape:collect="always" xlink:href="#linearGradient5272" id="linearGradient5481" gradientUnits="userSpaceOnUse" gradientTransform="matrix(1.5316784,0,0,1.3029555,-871.96414,-166.7681)" x1="531.59998" y1="391.29999" x2="515.19" y2="320.42001"/>
    <linearGradient inkscape:collect="always" xlink:href="#linearGradient5494" id="linearGradient5486" gradientUnits="userSpaceOnUse" gradientTransform="matrix(0.77420066,0,0,0.65859065,-28.958138,-42.763454)" x1="207.86993" y1="363.71835" x2="192" y2="424.5"/>
    <linearGradient inkscape:collect="always" xlink:href="#linearGradient5162" id="linearGradient5489" gradientUnits="userSpaceOnUse" gradientTransform="matrix(1.9324006,0,0,1.2246822,-745.93415,40.699176)" x1="375" y1="-108" x2="386" y2="134"/>
    <radialGradient inkscape:collect="always" xlink:href="#K" id="radialGradient5492" gradientUnits="userSpaceOnUse" gradientTransform="matrix(0.11689628,0.4772452,-0.47301485,0.08384128,550.14841,-435.76275)" cx="966.53998" cy="1111.16" r="383.91"/>
    <linearGradient inkscape:collect="always" xlink:href="#linearGradient5494" id="linearGradient5500" gradientUnits="userSpaceOnUse" x1="240.42" y1="209.14999" x2="213.55" y2="270"/>
    <linearGradient inkscape:collect="always" xlink:href="#linearGradient3280" id="linearGradient5506" gradientUnits="userSpaceOnUse" x1="230.52" y1="394.45001" x2="227.33" y2="324.45001"/>
    <linearGradient inkscape:collect="always" xlink:href="#linearGradient3280" id="linearGradient5508" gradientUnits="userSpaceOnUse" x1="230.52" y1="394.45001" x2="227.33" y2="324.45001"/>
  </defs>
  <rect width="608" height="384.00009" x="0" y="-3.2689155e-07" id="2" rx="51.290878" style="fill:#282828"/>
  <path d="m 51.367564,13.321676 c -21.238048,0 -38.034014,16.66493 -38.034014,37.8281 l 0,281.626414 c 0,21.16714 16.838152,37.98251 38.034014,37.98251 l 505.264886,0 c 21.19583,0 38.03401,-16.81535 38.03401,-37.98251 l 0,-281.626414 c 0,-21.16316 -16.79596,-37.8281 -38.03401,-37.8281 l -505.264886,0 z" id="3" inkscape:connector-curvature="0" style="fill:url(#P)"/>
  <path d="m 51.367564,19.343286 c -18.049593,0 -32.004231,13.85513 -32.004231,31.8065 l 0,281.626404 c 0,17.94788 14.032008,31.96089 32.004231,31.96089 l 505.264886,0 c 17.97217,0 32.00423,-14.01301 32.00423,-31.96089 l 0,-281.626404 c 0,-17.95135 -13.95466,-31.8065 -32.00423,-31.8065 l -505.264886,0 z" id="H" inkscape:connector-curvature="0" style="opacity:0.375;fill:none;stroke:url(#Q);stroke-width:11.85795498"/>
  <g id="g5510">
    <rect style="fill:url(#radialGradient5492);stroke:#323232;stroke-width:1.54647481;stroke-linecap:round;stroke-linejoin:round" id="4" y="48.583023" x="48.911133" height="286.86368" width="510.12827"/>
    <path inkscape:connector-curvature="0" id="rect3250" d="m 48.99099,48.524966 0,237.159094 510.0266,0 0,-237.159094 -510.0266,0 z" style="fill:url(#linearGradient5489)"/>
    <path inkscape:connector-curvature="0" id="path5533" d="m 134.47944,186.40456 c -31.42945,0 -60.693789,2.84214 -85.48845,7.72003 l 0,42.46012 221.07203,0 0,-27.02007 c -28.64755,-13.95456 -78.6767,-23.16008 -135.58358,-23.16008 z" style="fill:url(#linearGradient5486);fill-opacity:1"/>
    <path inkscape:connector-curvature="0" id="path5253" d="m 48.99099,226.54868 0,85.07465 279.15336,0 0,-39.98972 C 256.50961,249.49727 159.3637,233.42543 48.99099,226.54868 z" style="fill:#a75e38;fill-opacity:1"/>
    <path inkscape:connector-curvature="0" id="path5251" d="m 48.99099,236.73911 0,7.41122 c 79.12217,18.29284 161.69393,43.57621 178.96308,67.473 l 71.33113,0.1544 C 283.2569,284.84828 145.16091,254.45439 48.99099,236.73911 z" style="fill:#e9b96e"/>
    <path inkscape:connector-curvature="0" id="path5264" d="m 48.99099,229.94548 0,85.07467 275.34174,0 0,-40.14414 C 253.52579,252.99547 157.78289,236.95363 48.99099,229.94548 z" style="fill:url(#linearGradient5481)"/>
    <path inkscape:connector-curvature="0" id="path3252" d="m 444.12549,168.49411 c -173.13123,0 -313.63915,44.03737 -313.63915,98.19868 0,26.78233 34.35295,50.99448 90.02605,68.7082 l 338.5052,0 0,-159.95886 c -35.62274,-4.40141 -74.28829,-6.94802 -114.8921,-6.94802 z" style="fill:url(#linearGradient5478);fill-opacity:1"/>
    <path inkscape:connector-curvature="0" id="path2387" d="m 202.9065,254.18635 c -51.52244,1.0645 -102.88994,2.50756 -153.91551,5.40402 l 0,75.81062 510.0266,0 0,-53.73136 C 455.93765,264.29147 333.81367,254.18635 202.9065,254.18635 z" style="fill:url(#linearGradient5475)"/>
    <path inkscape:connector-curvature="0" id="use5282" d="m 203.81402,254.18635 c -51.7682,1.06958 -103.55798,2.63424 -154.82303,5.55842 l 0,75.65622 510.0266,0 0,-53.88576 C 456.09309,264.21345 334.40849,254.18635 203.81402,254.18635 z" style="opacity:0.1;fill:url(#pattern5472)"/>
    <path style="fill:#e9b96e" d="m 234.44783,254.37505 c 85.5563,13.08176 238.00231,45.67507 317.33332,81.00002 l 7.26382,0 0,-23.125 C 455.12593,285.0125 320.36881,262.14983 272.23434,255.12505 c -12.49805,-0.34038 -25.09191,-0.59662 -37.78651,-0.75 z m -62.36608,0.875 -18.19622,0.5 c 67.58934,20.3511 203.76264,46.82809 278.44622,79.62502 l 68.74943,0 C 411.21258,300.69874 232.19357,273.41895 172.08175,255.25005 z m -56.12948,1.4375 -27.514446,1.0625 c -0.294204,0.014 -0.586286,0.0494 -0.880464,0.0624 -3.132913,0.1398 -6.261681,0.289 -9.391598,0.4375 67.333058,20.27254 163.573848,45.18495 220.188958,77.12502 l 56.27623,0 C 288.34038,303.15028 166.52922,280.12639 115.95227,256.68755 z m -66.98851,10.3125 0,10.9375 c 48.78939,16.25139 93.82155,34.50292 125.83275,57.43752 l 56.5697,0 C 183.22413,307.15228 103.01075,287.1988 48.96376,267.00005 z m 0,34.56251 0,33.81251 69.18967,0 C 97.5686,322.81871 73.528867,311.94273 48.96376,301.56256 z" id="path3245" inkscape:connector-curvature="0"/>
    <g id="g5491" transform="matrix(0.22621261,0.02182264,-0.02185222,0.22590627,108.10602,121.54719)">
      <rect id="rect5493" style="fill:url(#linearGradient5506)" ry="10" height="119.5" width="26.163" y="291.92001" x="214.25"/>
      <path id="path5495" style="fill:url(#linearGradient5500);fill-opacity:1" sodipodi:type="star" sodipodi:sides="12" sodipodi:r1="61.854668" sodipodi:r2="54.060871" sodipodi:arg1="-0.18394346" sodipodi:arg2="0.077855928" transform="translate(28.284,14.142)" inkscape:randomized="0" sodipodi:cy="270.00357" sodipodi:cx="197.9899" inkscape:rounded="0.2" inkscape:flatsided="false" d="m 258.80108,258.68986 c 0.62149,3.34048 -6.6498,12.13091 -6.91407,15.51842 -0.26428,3.3875 5.55579,13.19924 4.42377,16.40292 -1.13202,3.20368 -11.82435,7.18078 -13.74697,9.98231 -1.92262,2.80153 -1.78817,14.20878 -4.37036,16.41724 -2.5822,2.20845 -13.83058,0.30655 -16.89638,1.77144 -3.0658,1.46489 -8.65299,11.41108 -11.99346,12.03256 -3.34048,0.62149 -12.13092,-6.6498 -15.51842,-6.91407 -3.3875,-0.26427 -13.19924,5.55579 -16.40292,4.42377 -3.20368,-1.13201 -7.18078,-11.82435 -9.98231,-13.74697 -2.80153,-1.92262 -14.20878,-1.78816 -16.41724,-4.37036 -2.20846,-2.58219 -0.30655,-13.83058 -1.77144,-16.89638 -1.46489,-3.0658 -11.41108,-8.65298 -12.03256,-11.99346 -0.62149,-3.34048 6.6498,-12.13091 6.91407,-15.51842 0.26427,-3.3875 -5.55579,-13.19924 -4.42377,-16.40292 1.13201,-3.20368 11.82435,-7.18078 13.74697,-9.98231 1.92262,-2.80153 1.78816,-14.20877 4.37036,-16.41723 2.58219,-2.20846 13.83058,-0.30656 16.89638,-1.77145 3.0658,-1.46488 8.65298,-11.41108 11.99346,-12.03256 3.34048,-0.62149 12.13091,6.6498 15.51842,6.91407 3.3875,0.26427 13.19924,-5.55579 16.40292,-4.42377 3.20368,1.13201 7.18078,11.82435 9.98231,13.74697 2.80153,1.92262 14.20877,1.78816 16.41723,4.37036 2.20846,2.5822 0.30656,13.83058 1.77145,16.89638 1.46488,3.0658 11.41108,8.65299 12.03256,11.99346 z"/>
    </g>
    <g id="g5499" transform="matrix(0.21251898,0.01923494,-0.02052946,0.1991149,61.280435,118.7783)">
      <rect id="rect5501" style="fill:url(#linearGradient5436)" ry="10" height="119.5" width="26.163" y="291.92001" x="214.25"/>
      <path id="path5503" style="fill:url(#linearGradient5438);fill-opacity:1" sodipodi:type="star" d="m 258.80108,258.68986 c 0.62149,3.34048 -6.6498,12.13091 -6.91407,15.51842 -0.26428,3.3875 5.55579,13.19924 4.42377,16.40292 -1.13202,3.20368 -11.82435,7.18078 -13.74697,9.98231 -1.92262,2.80153 -1.78817,14.20878 -4.37036,16.41724 -2.5822,2.20845 -13.83058,0.30655 -16.89638,1.77144 -3.0658,1.46489 -8.65299,11.41108 -11.99346,12.03256 -3.34048,0.62149 -12.13092,-6.6498 -15.51842,-6.91407 -3.3875,-0.26427 -13.19924,5.55579 -16.40292,4.42377 -3.20368,-1.13201 -7.18078,-11.82435 -9.98231,-13.74697 -2.80153,-1.92262 -14.20878,-1.78816 -16.41724,-4.37036 -2.20846,-2.58219 -0.30655,-13.83058 -1.77144,-16.89638 -1.46489,-3.0658 -11.41108,-8.65298 -12.03256,-11.99346 -0.62149,-3.34048 6.6498,-12.13091 6.91407,-15.51842 0.26427,-3.3875 -5.55579,-13.19924 -4.42377,-16.40292 1.13201,-3.20368 11.82435,-7.18078 13.74697,-9.98231 1.92262,-2.80153 1.78816,-14.20877 4.37036,-16.41723 2.58219,-2.20846 13.83058,-0.30656 16.89638,-1.77145 3.0658,-1.46488 8.65298,-11.41108 11.99346,-12.03256 3.34048,-0.62149 12.13091,6.6498 15.51842,6.91407 3.3875,0.26427 13.19924,-5.55579 16.40292,-4.42377 3.20368,1.13201 7.18078,11.82435 9.98231,13.74697 2.80153,1.92262 14.20877,1.78816 16.41723,4.37036 2.20846,2.5822 0.30656,13.83058 1.77145,16.89638 1.46488,3.0658 11.41108,8.65299 12.03256,11.99346 z" sodipodi:r1="61.854668" inkscape:flatsided="false" transform="translate(28.284,14.142)" sodipodi:arg2="0.077855928" sodipodi:arg1="-0.18394346" inkscape:randomized="0" sodipodi:cy="270.00357" sodipodi:cx="197.9899" inkscape:rounded="0.2" sodipodi:r2="54.060871" sodipodi:sides="12"/>
    </g>
    <g transform="matrix(0.44059957,0.04250445,-0.04256209,0.44000291,412.46574,38.883356)" id="g4936">
      <rect x="214.25" y="291.92001" width="26.163" height="119.5" ry="10" style="fill:url(#linearGradient5432)" id="rect4938"/>
      <path d="m 258.80108,258.68986 c 0.62149,3.34048 -6.6498,12.13091 -6.91407,15.51842 -0.26428,3.3875 5.55579,13.19924 4.42377,16.40292 -1.13202,3.20368 -11.82435,7.18078 -13.74697,9.98231 -1.92262,2.80153 -1.78817,14.20878 -4.37036,16.41724 -2.5822,2.20845 -13.83058,0.30655 -16.89638,1.77144 -3.0658,1.46489 -8.65299,11.41108 -11.99346,12.03256 -3.34048,0.62149 -12.13092,-6.6498 -15.51842,-6.91407 -3.3875,-0.26427 -13.19924,5.55579 -16.40292,4.42377 -3.20368,-1.13201 -7.18078,-11.82435 -9.98231,-13.74697 -2.80153,-1.92262 -14.20878,-1.78816 -16.41724,-4.37036 -2.20846,-2.58219 -0.30655,-13.83058 -1.77144,-16.89638 -1.46489,-3.0658 -11.41108,-8.65298 -12.03256,-11.99346 -0.62149,-3.34048 6.6498,-12.13091 6.91407,-15.51842 0.26427,-3.3875 -5.55579,-13.19924 -4.42377,-16.40292 1.13201,-3.20368 11.82435,-7.18078 13.74697,-9.98231 1.92262,-2.80153 1.78816,-14.20877 4.37036,-16.41723 2.58219,-2.20846 13.83058,-0.30656 16.89638,-1.77145 3.0658,-1.46488 8.65298,-11.41108 11.99346,-12.03256 3.34048,-0.62149 12.13091,6.6498 15.51842,6.91407 3.3875,0.26427 13.19924,-5.55579 16.40292,-4.42377 3.20368,1.13201 7.18078,11.82435 9.98231,13.74697 2.80153,1.92262 14.20877,1.78816 16.41723,4.37036 2.20846,2.5822 0.30656,13.83058 1.77145,16.89638 1.46488,3.0658 11.41108,8.65299 12.03256,11.99346 z" inkscape:flatsided="false" inkscape:rounded="0.2" sodipodi:cx="197.9899" sodipodi:cy="270.00357" inkscape:randomized="0" transform="translate(28.284,14.142)" sodipodi:arg2="0.077855928" sodipodi:arg1="-0.18394346" sodipodi:r2="54.060871" sodipodi:r1="61.854668" sodipodi:sides="12" sodipodi:type="star" style="fill:url(#linearGradient5434)" id="path4940"/>
    </g>
    <g transform="matrix(0.41392814,0.03746431,-0.03998575,0.3878207,310.28388,30.180106)" id="g5136">
      <rect x="214.25" y="291.92001" width="26.163" height="119.5" ry="10" style="fill:url(#linearGradient5508)" id="rect5138"/>
      <path sodipodi:sides="12" sodipodi:r2="54.060871" inkscape:rounded="0.2" sodipodi:cx="197.9899" sodipodi:cy="270.00357" inkscape:randomized="0" sodipodi:arg1="-0.18394346" sodipodi:arg2="0.077855928" transform="translate(28.284,14.142)" inkscape:flatsided="false" sodipodi:r1="61.854668" d="m 258.80108,258.68986 c 0.62149,3.34048 -6.6498,12.13091 -6.91407,15.51842 -0.26428,3.3875 5.55579,13.19924 4.42377,16.40292 -1.13202,3.20368 -11.82435,7.18078 -13.74697,9.98231 -1.92262,2.80153 -1.78817,14.20878 -4.37036,16.41724 -2.5822,2.20845 -13.83058,0.30655 -16.89638,1.77144 -3.0658,1.46489 -8.65299,11.41108 -11.99346,12.03256 -3.34048,0.62149 -12.13092,-6.6498 -15.51842,-6.91407 -3.3875,-0.26427 -13.19924,5.55579 -16.40292,4.42377 -3.20368,-1.13201 -7.18078,-11.82435 -9.98231,-13.74697 -2.80153,-1.92262 -14.20878,-1.78816 -16.41724,-4.37036 -2.20846,-2.58219 -0.30655,-13.83058 -1.77144,-16.89638 -1.46489,-3.0658 -11.41108,-8.65298 -12.03256,-11.99346 -0.62149,-3.34048 6.6498,-12.13091 6.91407,-15.51842 0.26427,-3.3875 -5.55579,-13.19924 -4.42377,-16.40292 1.13201,-3.20368 11.82435,-7.18078 13.74697,-9.98231 1.92262,-2.80153 1.78816,-14.20877 4.37036,-16.41723 2.58219,-2.20846 13.83058,-0.30656 16.89638,-1.77145 3.0658,-1.46488 8.65298,-11.41108 11.99346,-12.03256 3.34048,-0.62149 12.13091,6.6498 15.51842,6.91407 3.3875,0.26427 13.19924,-5.55579 16.40292,-4.42377 3.20368,1.13201 7.18078,11.82435 9.98231,13.74697 2.80153,1.92262 14.20877,1.78816 16.41723,4.37036 2.20846,2.5822 0.30656,13.83058 1.77145,16.89638 1.46488,3.0658 11.41108,8.65299 12.03256,11.99346 z" sodipodi:type="star" style="fill:url(#linearGradient5466);fill-opacity:1" id="path5140"/>
    </g>
    <path inkscape:connector-curvature="0" id="path5191" d="m 332.91205,48.524966 c -2.7554,2.3215 -4.84102,5.4449 -5.87518,8.95523 -1.75058,-0.66629 -3.68924,-1.0808 -5.72058,-1.0808 -7.74545,0 -14.06947,5.28854 -14.06947,11.88883 0,6.60029 6.32402,12.04323 14.06947,12.04323 3.96356,0 7.50638,-1.45603 10.04966,-3.70561 0.80922,4.45792 4.07614,7.87443 8.03972,7.87443 2.44418,0 4.665,-1.37814 6.18438,-3.39681 4.59112,-0.0841 8.82264,-1.74646 12.05956,-4.47762 1.48632,1.7581 3.45804,2.77921 5.72056,2.77921 4.55811,0 8.19433,-4.41932 8.19433,-9.88163 0,-5.22646 -3.28204,-9.36769 -7.57589,-9.72722 -0.69362,-4.45042 -3.01746,-8.45409 -6.339,-11.27124 l -24.73756,0 z" style="fill:url(#linearGradient5288)"/>
    <g id="g5440" transform="matrix(0.3178546,-0.0170663,0.01228772,0.29834322,189.76792,89.032356)">
      <rect id="rect5442" style="fill:url(#linearGradient5446)" ry="10" height="119.5" width="26.163" y="291.92001" x="214.25"/>
      <path id="path5444" style="fill:url(#linearGradient5448)" sodipodi:type="star" d="m 258.80108,258.68986 c 0.62149,3.34048 -6.6498,12.13091 -6.91407,15.51842 -0.26428,3.3875 5.55579,13.19924 4.42377,16.40292 -1.13202,3.20368 -11.82435,7.18078 -13.74697,9.98231 -1.92262,2.80153 -1.78817,14.20878 -4.37036,16.41724 -2.5822,2.20845 -13.83058,0.30655 -16.89638,1.77144 -3.0658,1.46489 -8.65299,11.41108 -11.99346,12.03256 -3.34048,0.62149 -12.13092,-6.6498 -15.51842,-6.91407 -3.3875,-0.26427 -13.19924,5.55579 -16.40292,4.42377 -3.20368,-1.13201 -7.18078,-11.82435 -9.98231,-13.74697 -2.80153,-1.92262 -14.20878,-1.78816 -16.41724,-4.37036 -2.20846,-2.58219 -0.30655,-13.83058 -1.77144,-16.89638 -1.46489,-3.0658 -11.41108,-8.65298 -12.03256,-11.99346 -0.62149,-3.34048 6.6498,-12.13091 6.91407,-15.51842 0.26427,-3.3875 -5.55579,-13.19924 -4.42377,-16.40292 1.13201,-3.20368 11.82435,-7.18078 13.74697,-9.98231 1.92262,-2.80153 1.78816,-14.20877 4.37036,-16.41723 2.58219,-2.20846 13.83058,-0.30656 16.89638,-1.77145 3.0658,-1.46488 8.65298,-11.41108 11.99346,-12.03256 3.34048,-0.62149 12.13091,6.6498 15.51842,6.91407 3.3875,0.26427 13.19924,-5.55579 16.40292,-4.42377 3.20368,1.13201 7.18078,11.82435 9.98231,13.74697 2.80153,1.92262 14.20877,1.78816 16.41723,4.37036 2.20846,2.5822 0.30656,13.83058 1.77145,16.89638 1.46488,3.0658 11.41108,8.65299 12.03256,11.99346 z" sodipodi:r1="61.854668" inkscape:flatsided="false" transform="translate(28.284,14.142)" sodipodi:arg2="0.077855928" sodipodi:arg1="-0.18394346" inkscape:randomized="0" sodipodi:cy="270.00357" sodipodi:cx="197.9899" inkscape:rounded="0.2" sodipodi:r2="54.060871" sodipodi:sides="12"/>
    </g>
  </g>
</svg>
